<svg viewBox="0 0 1060 445" width="100%" height="100%" xmlns="http://www.w3.org/2000/svg" style="font-family: 'GDS Transport', Arial, sans-serif;">
  <defs>
    <marker id="arrow" viewBox="0 0 10 10" refX="9" refY="5" markerWidth="6" markerHeight="6" orient="auto-start-reverse">
      <path d="M 0 0 L 10 5 L 0 10 z" fill="#0b0c0c" />
    </marker>
    <marker id="arrow-blue" viewBox="0 0 10 10" refX="9" refY="5" markerWidth="6" markerHeight="6" orient="auto-start-reverse">
      <path d="M 0 0 L 10 5 L 0 10 z" fill="#1d70b8" />
    </marker>
  </defs>
  <rect x="25" y="25" width="225" height="395" fill="#f8f8f8" stroke="#b1b4b6" stroke-dasharray="4" rx="4"/>\n  <text x="35" y="41" font-size="11" font-weight="bold" fill="#505a5f">PUBLIC / PRESENTATION</text>\n  <rect x="310" y="25" width="120" height="395" fill="#f8f8f8" stroke="#b1b4b6" stroke-dasharray="4" rx="4"/>\n  <text x="320" y="41" font-size="11" font-weight="bold" fill="#505a5f">INTEGRATION</text>\n  <rect x="490" y="25" width="245" height="395" fill="#f8f8f8" stroke="#b1b4b6" stroke-dasharray="4" rx="4"/>\n  <text x="500" y="41" font-size="11" font-weight="bold" fill="#505a5f">CORE BACK-OFFICE (Workflow)</text>\n  <rect x="750" y="25" width="220" height="175" fill="#f8f8f8" stroke="#b1b4b6" stroke-dasharray="4" rx="4"/>\n  <text x="760" y="41" font-size="11" font-weight="bold" fill="#505a5f">SYSTEMS OF RECORD</text>\n  <rect x="750" y="210" width="220" height="210" fill="#f8f8f8" stroke="#b1b4b6" stroke-dasharray="4" rx="4"/>\n  <text x="760" y="226" font-size="11" font-weight="bold" fill="#505a5f">EVENTING &amp; OUTPUTS</text>\n  <path d="M 227 71 L 327 140" fill="none" stroke="#0b0c0c" stroke-width="2" marker-end="url(#arrow)"/>
  <path d="M 227 150 L 327 225" fill="none" stroke="#0b0c0c" stroke-width="2" marker-end="url(#arrow)"/>
  <path d="M 137 55 L 137 30 L 1065 30 L 1065 220 L 723 220" fill="none" stroke="#1d70b8" stroke-width="2" stroke-dasharray="4" marker-end="url(#arrow-blue)"/>
  <text x="601" y="24" font-size="11" font-style="italic" text-anchor="middle" fill="#1d70b8">Browser Redirect to GOV.UK Pay</text>
  <path d="M 543 220 L 412 111" fill="none" stroke="#0b0c0c" stroke-width="2" marker-end="url(#arrow)"/>
  <text x="477" y="157" font-size="11" font-style="italic" text-anchor="middle" fill="#0b0c0c">Webhook</text>
  <path d="M 412 168 L 543 71" fill="none" stroke="#0b0c0c" stroke-width="2" marker-end="url(#arrow)"/>
  <path d="M 543 88 L 412 225" fill="none" stroke="#0b0c0c" stroke-width="2" marker-end="url(#arrow)"/>
  <path d="M 412 281 L 543 141" fill="none" stroke="#0b0c0c" stroke-width="2" marker-end="url(#arrow)"/>
  <path d="M 543 158 L 412 338" fill="none" stroke="#0b0c0c" stroke-width="2" marker-end="url(#arrow)"/>
  <path d="M 369 225 L 137 360" fill="none" stroke="#0b0c0c" stroke-width="2" stroke-dasharray="4" marker-end="url(#arrow)"/>
  <text x="253" y="284" font-size="11" font-style="italic" text-anchor="middle" fill="#0b0c0c">Sync</text>
  <path d="M 227 225 L 327 225" fill="none" stroke="#1d70b8" stroke-width="2" marker-end="url(#arrow-blue)"/>
  <path d="M 412 80 L 800 80" fill="none" stroke="#1d70b8" stroke-width="2" stroke-dasharray="4" marker-end="url(#arrow-blue)"/>
  <text x="606" y="74" font-size="11" font-style="italic" text-anchor="middle" fill="#1d70b8">Spatial Query (via API)</text>
  <path d="M 723 67 L 800 80" fill="none" stroke="#1d70b8" stroke-width="2" marker-end="url(#arrow-blue)"/>
  <path d="M 723 80 L 800 150" fill="none" stroke="#1d70b8" stroke-width="2" marker-end="url(#arrow-blue)"/>
  <path d="M 633 105 L 633 115 L 730 115 L 730 220 L 800 220" fill="none" stroke="#1d70b8" stroke-width="2" marker-end="url(#arrow-blue)"/>
  <path d="M 890 245 L 890 265" fill="none" stroke="#0b0c0c" stroke-width="2" marker-end="url(#arrow)"/>
  <path d="M 980 220 L 995 220 L 995 360 L 980 360" fill="none" stroke="#1d70b8" stroke-width="2" stroke-dasharray="4" marker-end="url(#arrow-blue)"/>
  <rect x="47" y="55" width="180" height="50" fill="#ffffff" stroke="#00703c" stroke-width="2" rx="4"/>
  <text x="137" y="75" font-size="14" font-weight="bold" text-anchor="middle" fill="#0b0c0c">Rules Engine (Forms)</text>
  <text x="137" y="92" font-size="11" text-anchor="middle" fill="#505a5f">e.g. PlanX</text>
  <rect x="47" y="125" width="180" height="50" fill="#ffffff" stroke="#1d70b8" stroke-width="2" rx="4"/>
  <text x="137" y="145" font-size="14" font-weight="bold" text-anchor="middle" fill="#0b0c0c">Identity / Auth</text>
  <text x="137" y="162" font-size="11" text-anchor="middle" fill="#505a5f">Agent SSO (OIDC)</text>
  <rect x="47" y="335" width="180" height="50" fill="#ffffff" stroke="#00703c" stroke-width="2" rx="4"/>
  <text x="137" y="355" font-size="14" font-weight="bold" text-anchor="middle" fill="#0b0c0c">Public Register</text>
  <text x="137" y="372" font-size="11" text-anchor="middle" fill="#505a5f">Edge-cached / Read-replica</text>
  <rect x="327" y="55" width="85" height="340" fill="#1d70b8" rx="4"/>
  <text x="369" y="225" font-size="14" font-weight="bold" text-anchor="middle" fill="#ffffff" transform="rotate(-90 369 225)">API Gateway</text>
  <rect x="543" y="55" width="180" height="50" fill="#ffffff" stroke="#1d70b8" stroke-width="2" rx="4"/>
  <text x="633" y="75" font-size="14" font-weight="bold" text-anchor="middle" fill="#0b0c0c">Case Management</text>
  <text x="633" y="92" font-size="11" text-anchor="middle" fill="#505a5f">(Workflow Engine)</text>
  <rect x="543" y="125" width="180" height="50" fill="#ffffff" stroke="#0b0c0c" stroke-width="2" rx="4"/>
  <text x="633" y="145" font-size="14" font-weight="bold" text-anchor="middle" fill="#0b0c0c">Statutory Consultees</text>
  <text x="633" y="162" font-size="11" text-anchor="middle" fill="#505a5f">External APIs</text>
  <rect x="543" y="195" width="180" height="50" fill="#ffffff" stroke="#1d70b8" stroke-width="2" rx="4"/>
  <text x="633" y="215" font-size="14" font-weight="bold" text-anchor="middle" fill="#0b0c0c">Payment Gateway</text>
  <text x="633" y="232" font-size="11" text-anchor="middle" fill="#505a5f">GOV.UK Pay</text>
  <path d="M 800 67 L 980 67 L 980 105 L 800 105 Z" fill="#ffffff" stroke="#505a5f" stroke-width="2"/>
  <path d="M 800 67 Q 890 77 980 67" fill="none" stroke="#505a5f" stroke-width="1"/>
  <ellipse cx="890" cy="67" rx="90" ry="10" fill="#ffffff" stroke="#505a5f" stroke-width="2"/>
  <text x="890" y="88" font-size="14" font-weight="bold" text-anchor="middle" fill="#0b0c0c">Spatial DB</text>
  <path d="M 800 137 L 980 137 L 980 175 L 800 175 Z" fill="#ffffff" stroke="#505a5f" stroke-width="2"/>
  <path d="M 800 137 Q 890 147 980 137" fill="none" stroke="#505a5f" stroke-width="1"/>
  <ellipse cx="890" cy="137" rx="90" ry="10" fill="#ffffff" stroke="#505a5f" stroke-width="2"/>
  <text x="890" y="158" font-size="14" font-weight="bold" text-anchor="middle" fill="#0b0c0c">EDRMS (Docs)</text>
  <rect x="800" y="195" width="180" height="50" fill="#ffffff" stroke="#1d70b8" stroke-width="2" rx="4"/>
  <text x="890" y="215" font-size="14" font-weight="bold" text-anchor="middle" fill="#0b0c0c">Event Broker</text>
  <text x="890" y="232" font-size="11" text-anchor="middle" fill="#505a5f">Pub/Sub</text>
  <rect x="800" y="265" width="180" height="50" fill="#ffffff" stroke="#0b0c0c" stroke-width="2" rx="4"/>
  <text x="890" y="295" font-size="14" font-weight="bold" text-anchor="middle" fill="#0b0c0c">GOV.UK Notify</text>
  <rect x="800" y="335" width="180" height="50" fill="#ffffff" stroke="#0b0c0c" stroke-width="2" rx="4"/>
  <text x="890" y="365" font-size="14" font-weight="bold" text-anchor="middle" fill="#0b0c0c">planning.data.gov.uk</text>
</svg>
