<svg viewBox="0 0 920 490" width="100%" height="100%" xmlns="http://www.w3.org/2000/svg" style="font-family: 'GDS Transport', Arial, sans-serif;">
  <defs>
    <marker id="arrow" viewBox="0 0 10 10" refX="9" refY="5" markerWidth="6" markerHeight="6" orient="auto-start-reverse">
      <path d="M 0 0 L 10 5 L 0 10 z" fill="#0b0c0c" />
    </marker>
    <marker id="arrow-blue" viewBox="0 0 10 10" refX="9" refY="5" markerWidth="6" markerHeight="6" orient="auto-start-reverse">
      <path d="M 0 0 L 10 5 L 0 10 z" fill="#1d70b8" />
    </marker>
  </defs>
  <rect x="10" y="50" width="230" height="420" fill="#f8f8f8" stroke="#b1b4b6" stroke-dasharray="4" rx="4"/>
  <text x="20" y="66" font-size="11" font-weight="bold" fill="#505a5f">PUBLIC / PRESENTATION</text>
  <rect x="255" y="50" width="140" height="420" fill="#f8f8f8" stroke="#b1b4b6" stroke-dasharray="4" rx="4"/>
  <text x="265" y="66" font-size="11" font-weight="bold" fill="#505a5f">INTEGRATION</text>
  <rect x="410" y="50" width="500" height="420" fill="#f8f8f8" stroke="#b1b4b6" stroke-dasharray="4" rx="4"/>
  <text x="420" y="66" font-size="11" font-weight="bold" fill="#505a5f">CORE BACK-OFFICE &amp; DATA</text>
  <rect x="30" y="95" width="190" height="50" fill="#ffffff" stroke="#1d70b8" stroke-width="2" rx="4"/>
  <text x="125" y="115" font-size="14" font-weight="bold" text-anchor="middle" fill="#0b0c0c">Rules Engine (Forms)</text>
  <text x="125" y="132" font-size="11" text-anchor="middle" fill="#505a5f">e.g. PlanX</text>
  <rect x="30" y="175" width="190" height="50" fill="#ffffff" stroke="#1d70b8" stroke-width="2" rx="4"/>
  <text x="125" y="195" font-size="14" font-weight="bold" text-anchor="middle" fill="#0b0c0c">Identity / Auth</text>
  <text x="125" y="212" font-size="11" text-anchor="middle" fill="#505a5f">Agent SSO (OIDC)</text>
  <rect x="30" y="375" width="190" height="50" fill="#ffffff" stroke="#00703c" stroke-width="2" rx="4"/>
  <text x="125" y="395" font-size="14" font-weight="bold" text-anchor="middle" fill="#0b0c0c">Public Register</text>
  <text x="125" y="412" font-size="11" text-anchor="middle" fill="#505a5f">Edge-cached / Read-replica</text>
  <rect x="275" y="95" width="100" height="295" fill="#1d70b8" rx="4"/>
  <text x="325" y="242" font-size="14" font-weight="bold" text-anchor="middle" fill="#ffffff" transform="rotate(-90 325 242)">API Gateway</text>
  <rect x="440" y="120" width="210" height="60" fill="#ffffff" stroke="#1d70b8" stroke-width="2" rx="4"/>
  <text x="545" y="145" font-size="14" font-weight="bold" text-anchor="middle" fill="#0b0c0c">Case Management</text>
  <text x="545" y="162" font-size="11" text-anchor="middle" fill="#505a5f">(Workflow Engine)</text>
  <rect x="440" y="250" width="210" height="60" fill="#ffffff" stroke="#1d70b8" stroke-width="2" rx="4"/>
  <text x="545" y="275" font-size="14" font-weight="bold" text-anchor="middle" fill="#0b0c0c">Statutory Consultees</text>
  <text x="545" y="292" font-size="11" text-anchor="middle" fill="#505a5f">External API Integrations</text>
  <rect x="440" y="370" width="210" height="50" fill="#ffffff" stroke="#1d70b8" stroke-width="2" rx="4"/>
  <text x="545" y="390" font-size="14" font-weight="bold" text-anchor="middle" fill="#0b0c0c">Payment Gateway</text>
  <text x="545" y="407" font-size="11" text-anchor="middle" fill="#505a5f">GOV.UK Pay</text>
  <path d="M 720 105 L 860 105 L 860 150 L 720 150 Z" fill="#ffffff" stroke="#505a5f" stroke-width="2"/>
  <path d="M 720 105 Q 790 115 860 105" fill="none" stroke="#505a5f" stroke-width="1"/>
  <ellipse cx="790" cy="105" rx="70" ry="10" fill="#ffffff" stroke="#505a5f" stroke-width="2"/>
  <text x="790" y="132" font-size="14" font-weight="bold" text-anchor="middle" fill="#0b0c0c">Spatial DB</text>
  <path d="M 720 195 L 860 195 L 860 240 L 720 240 Z" fill="#ffffff" stroke="#505a5f" stroke-width="2"/>
  <path d="M 720 195 Q 790 205 860 195" fill="none" stroke="#505a5f" stroke-width="1"/>
  <ellipse cx="790" cy="195" rx="70" ry="10" fill="#ffffff" stroke="#505a5f" stroke-width="2"/>
  <text x="790" y="222" font-size="14" font-weight="bold" text-anchor="middle" fill="#0b0c0c">EDRMS (Docs)</text>
  <rect x="720" y="290" width="140" height="50" fill="#ffffff" stroke="#1d70b8" stroke-width="2" rx="4"/>
  <text x="790" y="310" font-size="14" font-weight="bold" text-anchor="middle" fill="#0b0c0c">Event Broker</text>
  <text x="790" y="327" font-size="11" text-anchor="middle" fill="#505a5f">Pub/Sub</text>
  <rect x="720" y="380" width="140" height="40" fill="#ffffff" stroke="#0b0c0c" stroke-width="2" rx="4"/>
  <text x="790" y="405" font-size="14" font-weight="bold" text-anchor="middle" fill="#0b0c0c">GOV.UK Notify</text>
  <rect x="720" y="435" width="140" height="30" fill="#ffffff" stroke="#0b0c0c" stroke-width="2" rx="4"/>
  <text x="790" y="455" font-size="14" font-weight="bold" text-anchor="middle" fill="#0b0c0c">planning.data.gov.uk</text>
  <path d="M 375 35 L 785 35 L 785 90" fill="none" stroke="#1d70b8" stroke-width="2" stroke-dasharray="4" marker-end="url(#arrow-blue)"/>
  <text x="580" y="27" font-size="11" font-style="italic" text-anchor="middle" fill="#1d70b8">Direct UPRN / Constraint Queries</text>
  <line x1="220" y1="120" x2="270" y2="120" stroke="#0b0c0c" stroke-width="2" marker-end="url(#arrow)"/>
  <line x1="220" y1="200" x2="270" y2="200" stroke="#0b0c0c" stroke-width="2" marker-end="url(#arrow)"/>
  <line x1="375" y1="145" x2="435" y2="145" stroke="#0b0c0c" stroke-width="2" marker-end="url(#arrow)"/>
  <line x1="435" y1="158" x2="375" y2="158" stroke="#0b0c0c" stroke-width="2" marker-end="url(#arrow)"/>
  <line x1="325" y1="390" x2="225" y2="400" stroke="#0b0c0c" stroke-width="2" marker-end="url(#arrow)"/>
  <line x1="650" y1="130" x2="715" y2="110" stroke="#1d70b8" stroke-width="2" marker-end="url(#arrow-blue)"/>
  <line x1="715" y1="125" x2="650" y2="145" stroke="#1d70b8" stroke-width="2" marker-end="url(#arrow-blue)"/>
  <line x1="650" y1="155" x2="715" y2="200" stroke="#1d70b8" stroke-width="2" marker-end="url(#arrow-blue)"/>
  <line x1="545" y1="180" x2="545" y2="245" stroke="#0b0c0c" stroke-width="2" marker-end="url(#arrow)"/>
  <line x1="440" y1="270" x2="375" y2="270" stroke="#0b0c0c" stroke-width="2" marker-end="url(#arrow)"/>
  <line x1="375" y1="285" x2="440" y2="285" stroke="#0b0c0c" stroke-width="2" marker-end="url(#arrow)"/>
  <line x1="480" y1="180" x2="480" y2="365" stroke="#0b0c0c" stroke-width="2" marker-end="url(#arrow)"/>
  <path d="M 650 150 L 690 150 L 690 310 L 715 310" fill="none" stroke="#1d70b8" stroke-width="2" marker-end="url(#arrow-blue)"/>
  <line x1="790" y1="340" x2="790" y2="375" stroke="#0b0c0c" stroke-width="2" marker-end="url(#arrow)"/>
  <line x1="790" y1="340" x2="790" y2="430" stroke="#0b0c0c" stroke-width="2" marker-end="url(#arrow)"/>
</svg>
