<svg viewBox="0 0 1265 525" width="100%" height="100%" xmlns="http://www.w3.org/2000/svg" style="font-family: 'GDS Transport', Arial, sans-serif;">
  <defs>
    <marker id="arrow" viewBox="0 0 10 10" refX="9" refY="5" markerWidth="6" markerHeight="6" orient="auto-start-reverse">
      <path d="M 0 0 L 10 5 L 0 10 z" fill="#0b0c0c" />
    </marker>
    <marker id="arrow-blue" viewBox="0 0 10 10" refX="9" refY="5" markerWidth="6" markerHeight="6" orient="auto-start-reverse">
      <path d="M 0 0 L 10 5 L 0 10 z" fill="#1d70b8" />
    </marker>
  </defs>
  <rect x="43" y="125" width="210" height="275" fill="#f8f8f8" stroke="#b1b4b6" stroke-dasharray="4" rx="4"/>
  <text x="53" y="141" font-size="11" font-weight="bold" fill="#505a5f">PUBLIC / PRESENTATION</text>
  <rect x="333" y="65" width="110" height="295" fill="#f8f8f8" stroke="#b1b4b6" stroke-dasharray="4" rx="4"/>
  <text x="343" y="81" font-size="11" font-weight="bold" fill="#505a5f">INTEGRATION</text>
  <rect x="523" y="30" width="700" height="455" fill="#f8f8f8" stroke="#b1b4b6" stroke-dasharray="4" rx="4"/>
  <text x="533" y="46" font-size="11" font-weight="bold" fill="#505a5f">CORE BACK-OFFICE &amp; DATA</text>
  <path d="M 248 270 L 270 270 L 293 270 L 315 270 L 338 254" fill="none" stroke="#0b0c0c" stroke-width="2" marker-end="url(#arrow)"/>
  <path d="M 248 180 L 270 180 L 293 180 L 315 180 L 338 192" fill="none" stroke="#0b0c0c" stroke-width="2" marker-end="url(#arrow)"/>
  <path d="M 438 251 L 460 265 L 483 265 L 505 265 L 528 265" fill="none" stroke="#0b0c0c" stroke-width="2" marker-end="url(#arrow)"/>
  <path d="M 538 273 L 538 195 L 428 195" fill="none" stroke="#0b0c0c" stroke-width="2" marker-end="url(#arrow)"/>
  <path d="M 651 230 L 750 85 L 773 85" fill="none" stroke="#1d70b8" stroke-width="2" marker-end="url(#arrow-blue)"/>
  <path d="M 728 265 L 750 265 L 773 265" fill="none" stroke="#1d70b8" stroke-width="2" marker-end="url(#arrow-blue)"/>
  <path d="M 705 230 L 750 210 L 773 204" fill="none" stroke="#0b0c0c" stroke-width="2" marker-end="url(#arrow)"/>
  <path d="M 675 300 L 750 355 L 773 355" fill="none" stroke="#0b0c0c" stroke-width="2" marker-end="url(#arrow)"/>
  <path d="M 651 300 L 750 445 L 773 445" fill="none" stroke="#1d70b8" stroke-width="2" marker-end="url(#arrow-blue)"/>
  <path d="M 973 445 L 995 445 L 1018 445" fill="none" stroke="#0b0c0c" stroke-width="2" marker-end="url(#arrow)"/>
  <path d="M 438 180 L 460 163 L 483 163 L 505 163 L 628 163 L 750 163 L 773 165" fill="none" stroke="#0b0c0c" stroke-width="2" marker-end="url(#arrow)"/>
  <path d="M 783 187 L 783 295 L 428 295" fill="none" stroke="#0b0c0c" stroke-width="2" marker-end="url(#arrow)"/>
  <path d="M 348 282 L 348 360 L 238 360" fill="none" stroke="#0b0c0c" stroke-width="2" marker-end="url(#arrow)"/>
  <path d="M 238 270 L 253 270 L 253 20 L 873 20 L 873 60" fill="none" stroke="#1d70b8" stroke-width="2" stroke-dasharray="4" marker-end="url(#arrow-blue)"/>
  <text x="555" y="14" font-size="11" font-style="italic" text-anchor="middle" fill="#1d70b8">Direct UPRN / Constraint Queries</text>
  <rect x="58" y="155" width="180" height="50" fill="#ffffff" stroke="#1d70b8" stroke-width="2" rx="4"/>
  <text x="148" y="175" font-size="14" font-weight="bold" text-anchor="middle" fill="#0b0c0c">Identity / Auth</text>
  <text x="148" y="192" font-size="11" text-anchor="middle" fill="#505a5f">Agent SSO (OIDC)</text>
  <rect x="58" y="245" width="180" height="50" fill="#ffffff" stroke="#00703c" stroke-width="2" rx="4"/>
  <text x="148" y="265" font-size="14" font-weight="bold" text-anchor="middle" fill="#0b0c0c">Rules Engine (Forms)</text>
  <text x="148" y="282" font-size="11" text-anchor="middle" fill="#505a5f">e.g. PlanX</text>
  <rect x="58" y="335" width="180" height="50" fill="#ffffff" stroke="#00703c" stroke-width="2" rx="4"/>
  <text x="148" y="355" font-size="14" font-weight="bold" text-anchor="middle" fill="#0b0c0c">Public Register</text>
  <text x="148" y="372" font-size="11" text-anchor="middle" fill="#505a5f">Edge-cached / Read-replica</text>
  <rect x="348" y="95" width="80" height="250" fill="#1d70b8" rx="4"/>
  <text x="388" y="220" font-size="14" font-weight="bold" text-anchor="middle" fill="#ffffff" transform="rotate(-90 388 220)">API Gateway</text>
  <rect x="538" y="240" width="180" height="50" fill="#ffffff" stroke="#1d70b8" stroke-width="2" rx="4"/>
  <text x="628" y="260" font-size="14" font-weight="bold" text-anchor="middle" fill="#0b0c0c">Case Management</text>
  <text x="628" y="277" font-size="11" text-anchor="middle" fill="#505a5f">(Workflow Engine)</text>
  <rect x="783" y="150" width="180" height="50" fill="#ffffff" stroke="#0b0c0c" stroke-width="2" rx="4"/>
  <text x="873" y="170" font-size="14" font-weight="bold" text-anchor="middle" fill="#0b0c0c">Statutory Consultees</text>
  <text x="873" y="187" font-size="11" text-anchor="middle" fill="#505a5f">External APIs</text>
  <rect x="783" y="330" width="180" height="50" fill="#ffffff" stroke="#1d70b8" stroke-width="2" rx="4"/>
  <text x="873" y="350" font-size="14" font-weight="bold" text-anchor="middle" fill="#0b0c0c">Payment Gateway</text>
  <text x="873" y="367" font-size="11" text-anchor="middle" fill="#505a5f">GOV.UK Pay</text>
  <path d="M 783 72 L 963 72 L 963 110 L 783 110 Z" fill="#ffffff" stroke="#505a5f" stroke-width="2"/>
  <path d="M 783 72 Q 873 82 963 72" fill="none" stroke="#505a5f" stroke-width="1"/>
  <ellipse cx="873" cy="72" rx="90" ry="10" fill="#ffffff" stroke="#505a5f" stroke-width="2"/>
  <text x="873" y="93" font-size="14" font-weight="bold" text-anchor="middle" fill="#0b0c0c">Spatial DB</text>
  <path d="M 783 252 L 963 252 L 963 290 L 783 290 Z" fill="#ffffff" stroke="#505a5f" stroke-width="2"/>
  <path d="M 783 252 Q 873 262 963 252" fill="none" stroke="#505a5f" stroke-width="1"/>
  <ellipse cx="873" cy="252" rx="90" ry="10" fill="#ffffff" stroke="#505a5f" stroke-width="2"/>
  <text x="873" y="273" font-size="14" font-weight="bold" text-anchor="middle" fill="#0b0c0c">EDRMS (Docs)</text>
  <rect x="783" y="420" width="180" height="50" fill="#ffffff" stroke="#1d70b8" stroke-width="2" rx="4"/>
  <text x="873" y="440" font-size="14" font-weight="bold" text-anchor="middle" fill="#0b0c0c">Event Broker</text>
  <text x="873" y="457" font-size="11" text-anchor="middle" fill="#505a5f">Pub/Sub</text>
  <rect x="1028" y="420" width="180" height="50" fill="#ffffff" stroke="#0b0c0c" stroke-width="2" rx="4"/>
  <text x="1118" y="450" font-size="14" font-weight="bold" text-anchor="middle" fill="#0b0c0c">GOV.UK Notify</text>
</svg>
