<svg viewBox="0 0 1165 435" width="100%" height="100%" xmlns="http://www.w3.org/2000/svg" style="font-family: 'GDS Transport', Arial, sans-serif;">
  <defs>
    <marker id="arrow" viewBox="0 0 10 10" refX="9" refY="5" markerWidth="6" markerHeight="6" orient="auto-start-reverse">
      <path d="M 0 0 L 10 5 L 0 10 z" fill="#0b0c0c" />
    </marker>
    <marker id="arrow-blue" viewBox="0 0 10 10" refX="9" refY="5" markerWidth="6" markerHeight="6" orient="auto-start-reverse">
      <path d="M 0 0 L 10 5 L 0 10 z" fill="#1d70b8" />
    </marker>
  </defs>
  <rect x="33" y="115" width="210" height="235" fill="#f8f8f8" stroke="#b1b4b6" stroke-dasharray="4" rx="4"/>
  <text x="43" y="131" font-size="11" font-weight="bold" fill="#505a5f">PUBLIC / PRESENTATION</text>
  <rect x="303" y="35" width="110" height="295" fill="#f8f8f8" stroke="#b1b4b6" stroke-dasharray="4" rx="4"/>
  <text x="313" y="51" font-size="11" font-weight="bold" fill="#505a5f">INTEGRATION</text>
  <rect x="473" y="30" width="660" height="375" fill="#f8f8f8" stroke="#b1b4b6" stroke-dasharray="4" rx="4"/>
  <text x="483" y="46" font-size="11" font-weight="bold" fill="#505a5f">CORE BACK-OFFICE &amp; DATA</text>
  <path d="M 228 240 L 250 240 L 273 240 L 295 240 L 318 222" fill="none" stroke="#0b0c0c" stroke-width="2" marker-end="url(#arrow)"/>
  <path d="M 228 170 L 250 170 L 273 170 L 295 170 L 318 177" fill="none" stroke="#0b0c0c" stroke-width="2" marker-end="url(#arrow)"/>
  <path d="M 398 216 L 420 230 L 443 230 L 465 230 L 488 230" fill="none" stroke="#0b0c0c" stroke-width="2" marker-end="url(#arrow)"/>
  <path d="M 488 238 L 488 165 L 398 165" fill="none" stroke="#0b0c0c" stroke-width="2" marker-end="url(#arrow)"/>
  <path d="M 597 205 L 690 85 L 713 85" fill="none" stroke="#1d70b8" stroke-width="2" marker-end="url(#arrow-blue)"/>
  <path d="M 668 226 L 690 225 L 713 225" fill="none" stroke="#1d70b8" stroke-width="2" marker-end="url(#arrow-blue)"/>
  <path d="M 634 205 L 690 180 L 713 175" fill="none" stroke="#0b0c0c" stroke-width="2" marker-end="url(#arrow)"/>
  <path d="M 621 255 L 690 295 L 713 295" fill="none" stroke="#0b0c0c" stroke-width="2" marker-end="url(#arrow)"/>
  <path d="M 598 255 L 690 365 L 713 365" fill="none" stroke="#1d70b8" stroke-width="2" marker-end="url(#arrow-blue)"/>
  <path d="M 893 365 L 915 365 L 938 365" fill="none" stroke="#0b0c0c" stroke-width="2" marker-end="url(#arrow)"/>
  <path d="M 398 156 L 420 138 L 443 138 L 465 138 L 578 138 L 690 138 L 713 141" fill="none" stroke="#0b0c0c" stroke-width="2" marker-end="url(#arrow)"/>
  <path d="M 713 167 L 713 265 L 398 265" fill="none" stroke="#0b0c0c" stroke-width="2" marker-end="url(#arrow)"/>
  <path d="M 318 252 L 318 310 L 228 310" fill="none" stroke="#0b0c0c" stroke-width="2" marker-end="url(#arrow)"/>
  <path d="M 228 240 L 243 240 L 243 20 L 803 20 L 803 60" fill="none" stroke="#1d70b8" stroke-width="2" stroke-dasharray="4" marker-end="url(#arrow-blue)"/>
  <text x="515" y="14" font-size="11" font-style="italic" text-anchor="middle" fill="#1d70b8">Direct UPRN / Constraint Queries</text>
  <rect x="48" y="145" width="180" height="50" fill="#ffffff" stroke="#1d70b8" stroke-width="2" rx="4"/>
  <text x="138" y="165" font-size="14" font-weight="bold" text-anchor="middle" fill="#0b0c0c">Identity / Auth</text>
  <text x="138" y="182" font-size="11" text-anchor="middle" fill="#505a5f">Agent SSO (OIDC)</text>
  <rect x="48" y="215" width="180" height="50" fill="#ffffff" stroke="#00703c" stroke-width="2" rx="4"/>
  <text x="138" y="235" font-size="14" font-weight="bold" text-anchor="middle" fill="#0b0c0c">Rules Engine (Forms)</text>
  <text x="138" y="252" font-size="11" text-anchor="middle" fill="#505a5f">e.g. PlanX</text>
  <rect x="48" y="285" width="180" height="50" fill="#ffffff" stroke="#00703c" stroke-width="2" rx="4"/>
  <text x="138" y="305" font-size="14" font-weight="bold" text-anchor="middle" fill="#0b0c0c">Public Register</text>
  <text x="138" y="322" font-size="11" text-anchor="middle" fill="#505a5f">Edge-cached / Read-replica</text>
  <rect x="318" y="65" width="80" height="250" fill="#1d70b8" rx="4"/>
  <text x="358" y="190" font-size="14" font-weight="bold" text-anchor="middle" fill="#ffffff" transform="rotate(-90 358 190)">API Gateway</text>
  <rect x="488" y="205" width="180" height="50" fill="#ffffff" stroke="#1d70b8" stroke-width="2" rx="4"/>
  <text x="578" y="225" font-size="14" font-weight="bold" text-anchor="middle" fill="#0b0c0c">Case Management</text>
  <text x="578" y="242" font-size="11" text-anchor="middle" fill="#505a5f">(Workflow Engine)</text>
  <rect x="713" y="130" width="180" height="50" fill="#ffffff" stroke="#0b0c0c" stroke-width="2" rx="4"/>
  <text x="803" y="150" font-size="14" font-weight="bold" text-anchor="middle" fill="#0b0c0c">Statutory Consultees</text>
  <text x="803" y="167" font-size="11" text-anchor="middle" fill="#505a5f">External APIs</text>
  <rect x="713" y="270" width="180" height="50" fill="#ffffff" stroke="#1d70b8" stroke-width="2" rx="4"/>
  <text x="803" y="290" font-size="14" font-weight="bold" text-anchor="middle" fill="#0b0c0c">Payment Gateway</text>
  <text x="803" y="307" font-size="11" text-anchor="middle" fill="#505a5f">GOV.UK Pay</text>
  <path d="M 713 72 L 893 72 L 893 110 L 713 110 Z" fill="#ffffff" stroke="#505a5f" stroke-width="2"/>
  <path d="M 713 72 Q 803 82 893 72" fill="none" stroke="#505a5f" stroke-width="1"/>
  <ellipse cx="803" cy="72" rx="90" ry="10" fill="#ffffff" stroke="#505a5f" stroke-width="2"/>
  <text x="803" y="93" font-size="14" font-weight="bold" text-anchor="middle" fill="#0b0c0c">Spatial DB</text>
  <path d="M 713 212 L 893 212 L 893 250 L 713 250 Z" fill="#ffffff" stroke="#505a5f" stroke-width="2"/>
  <path d="M 713 212 Q 803 222 893 212" fill="none" stroke="#505a5f" stroke-width="1"/>
  <ellipse cx="803" cy="212" rx="90" ry="10" fill="#ffffff" stroke="#505a5f" stroke-width="2"/>
  <text x="803" y="233" font-size="14" font-weight="bold" text-anchor="middle" fill="#0b0c0c">EDRMS (Docs)</text>
  <rect x="713" y="340" width="180" height="50" fill="#ffffff" stroke="#1d70b8" stroke-width="2" rx="4"/>
  <text x="803" y="360" font-size="14" font-weight="bold" text-anchor="middle" fill="#0b0c0c">Event Broker</text>
  <text x="803" y="377" font-size="11" text-anchor="middle" fill="#505a5f">Pub/Sub</text>
  <rect x="938" y="340" width="180" height="50" fill="#ffffff" stroke="#0b0c0c" stroke-width="2" rx="4"/>
  <text x="1028" y="370" font-size="14" font-weight="bold" text-anchor="middle" fill="#0b0c0c">GOV.UK Notify</text>
</svg>
