<svg viewBox="0 0 1270 705" width="100%" height="100%" xmlns="http://www.w3.org/2000/svg" style="font-family: 'GDS Transport', Arial, sans-serif;">
  <defs>
    <marker id="arrow" viewBox="0 0 10 10" refX="9" refY="5" markerWidth="6" markerHeight="6" orient="auto-start-reverse">
      <path d="M 0 0 L 10 5 L 0 10 z" fill="#0b0c0c" />
    </marker>
    <marker id="arrow-blue" viewBox="0 0 10 10" refX="9" refY="5" markerWidth="6" markerHeight="6" orient="auto-start-reverse">
      <path d="M 0 0 L 10 5 L 0 10 z" fill="#1d70b8" />
    </marker>
  </defs>
  <rect x="40" y="15" width="680" height="170" fill="#f8f8f8" stroke="#b1b4b6" stroke-dasharray="4" rx="4"/>
  <text x="50" y="31" font-size="11" font-weight="bold" fill="#505a5f">PUBLIC / PRESENTATION</text>
  <rect x="310" y="225" width="110" height="295" fill="#f8f8f8" stroke="#b1b4b6" stroke-dasharray="4" rx="4"/>
  <text x="320" y="241" font-size="11" font-weight="bold" fill="#505a5f">INTEGRATION</text>
  <rect x="510" y="280" width="720" height="395" fill="#f8f8f8" stroke="#b1b4b6" stroke-dasharray="4" rx="4"/>
  <text x="520" y="296" font-size="11" font-weight="bold" fill="#505a5f">CORE BACK-OFFICE &amp; DATA</text>
  <path d="M 235 145 L 265 145 L 295 145 L 328 255" fill="none" stroke="#0b0c0c" stroke-width="2" marker-end="url(#arrow)"/>
  <path d="M 235 70 L 265 70 L 295 70 L 337 255" fill="none" stroke="#0b0c0c" stroke-width="2" marker-end="url(#arrow)"/>
  <path d="M 405 454 L 435 510 L 465 510 L 495 510 L 525 504" fill="none" stroke="#0b0c0c" stroke-width="2" marker-end="url(#arrow)"/>
  <path d="M 579 460 L 495 403 L 465 403 L 435 403 L 405 393" fill="none" stroke="#0b0c0c" stroke-width="2" marker-end="url(#arrow)"/>
  <path d="M 705 485 L 735 485 L 765 485 L 795 485" fill="none" stroke="#1d70b8" stroke-width="2" marker-end="url(#arrow-blue)"/>
  <path d="M 655 510 L 735 560 L 765 560 L 795 560" fill="none" stroke="#1d70b8" stroke-width="2" marker-end="url(#arrow-blue)"/>
  <path d="M 640 460 L 735 365 L 765 365 L 795 358" fill="none" stroke="#0b0c0c" stroke-width="2" marker-end="url(#arrow)"/>
  <path d="M 655 460 L 735 410 L 765 410 L 795 410" fill="none" stroke="#0b0c0c" stroke-width="2" marker-end="url(#arrow)"/>
  <path d="M 635 510 L 735 635 L 765 635 L 795 635" fill="none" stroke="#1d70b8" stroke-width="2" marker-end="url(#arrow-blue)"/>
  <path d="M 975 635 L 1005 635 L 1035 635" fill="none" stroke="#0b0c0c" stroke-width="2" marker-end="url(#arrow)"/>
  <path d="M 405 363 L 435 350 L 465 350 L 495 350 L 615 350 L 735 350 L 765 350 L 795 346" fill="none" stroke="#0b0c0c" stroke-width="2" marker-end="url(#arrow)"/>
  <path d="M 795 324 L 765 320 L 735 320 L 615 320 L 495 320 L 465 320 L 435 320 L 405 346" fill="none" stroke="#0b0c0c" stroke-width="2" marker-end="url(#arrow)"/>
  <path d="M 405 313 L 435 263 L 465 108 L 495 108 L 525 108" fill="none" stroke="#0b0c0c" stroke-width="2" marker-end="url(#arrow)"/>
  <path d="M 145 120 L 145 20 L 885 20 L 885 460" fill="none" stroke="#1d70b8" stroke-width="2" stroke-dasharray="4" marker-end="url(#arrow-blue)"/>
  <text x="515" y="14" font-size="11" font-style="italic" text-anchor="middle" fill="#1d70b8">Direct UPRN / Constraint Queries</text>
  <rect x="55" y="120" width="180" height="50" fill="#ffffff" stroke="#00703c" stroke-width="2" rx="4"/>
  <text x="145" y="140" font-size="14" font-weight="bold" text-anchor="middle" fill="#0b0c0c">Rules Engine (Forms)</text>
  <text x="145" y="157" font-size="11" text-anchor="middle" fill="#505a5f">e.g. PlanX</text>
  <rect x="55" y="45" width="180" height="50" fill="#ffffff" stroke="#1d70b8" stroke-width="2" rx="4"/>
  <text x="145" y="65" font-size="14" font-weight="bold" text-anchor="middle" fill="#0b0c0c">Identity / Auth</text>
  <text x="145" y="82" font-size="11" text-anchor="middle" fill="#505a5f">Agent SSO (OIDC)</text>
  <rect x="525" y="83" width="180" height="50" fill="#ffffff" stroke="#00703c" stroke-width="2" rx="4"/>
  <text x="615" y="103" font-size="14" font-weight="bold" text-anchor="middle" fill="#0b0c0c">Public Register</text>
  <text x="615" y="120" font-size="11" text-anchor="middle" fill="#505a5f">Edge-cached / Read-replica</text>
  <rect x="325" y="255" width="80" height="250" fill="#1d70b8" rx="4"/>
  <text x="365" y="380" font-size="14" font-weight="bold" text-anchor="middle" fill="#ffffff" transform="rotate(-90 365 380)">API Gateway</text>
  <rect x="525" y="460" width="180" height="50" fill="#ffffff" stroke="#1d70b8" stroke-width="2" rx="4"/>
  <text x="615" y="480" font-size="14" font-weight="bold" text-anchor="middle" fill="#0b0c0c">Case Management</text>
  <text x="615" y="497" font-size="11" text-anchor="middle" fill="#505a5f">(Workflow Engine)</text>
  <rect x="795" y="310" width="180" height="50" fill="#ffffff" stroke="#0b0c0c" stroke-width="2" rx="4"/>
  <text x="885" y="330" font-size="14" font-weight="bold" text-anchor="middle" fill="#0b0c0c">Statutory Consultees</text>
  <text x="885" y="347" font-size="11" text-anchor="middle" fill="#505a5f">External APIs</text>
  <rect x="795" y="385" width="180" height="50" fill="#ffffff" stroke="#1d70b8" stroke-width="2" rx="4"/>
  <text x="885" y="405" font-size="14" font-weight="bold" text-anchor="middle" fill="#0b0c0c">Payment Gateway</text>
  <text x="885" y="422" font-size="11" text-anchor="middle" fill="#505a5f">GOV.UK Pay</text>
  <path d="M 795 472 L 975 472 L 975 510 L 795 510 Z" fill="#ffffff" stroke="#505a5f" stroke-width="2"/>
  <path d="M 795 472 Q 885 482 975 472" fill="none" stroke="#505a5f" stroke-width="1"/>
  <ellipse cx="885" cy="472" rx="90" ry="10" fill="#ffffff" stroke="#505a5f" stroke-width="2"/>
  <text x="885" y="493" font-size="14" font-weight="bold" text-anchor="middle" fill="#0b0c0c">Spatial DB</text>
  <path d="M 795 547 L 975 547 L 975 585 L 795 585 Z" fill="#ffffff" stroke="#505a5f" stroke-width="2"/>
  <path d="M 795 547 Q 885 557 975 547" fill="none" stroke="#505a5f" stroke-width="1"/>
  <ellipse cx="885" cy="547" rx="90" ry="10" fill="#ffffff" stroke="#505a5f" stroke-width="2"/>
  <text x="885" y="568" font-size="14" font-weight="bold" text-anchor="middle" fill="#0b0c0c">EDRMS (Docs)</text>
  <rect x="795" y="610" width="180" height="50" fill="#ffffff" stroke="#1d70b8" stroke-width="2" rx="4"/>
  <text x="885" y="630" font-size="14" font-weight="bold" text-anchor="middle" fill="#0b0c0c">Event Broker</text>
  <text x="885" y="647" font-size="11" text-anchor="middle" fill="#505a5f">Pub/Sub</text>
  <rect x="1035" y="610" width="180" height="50" fill="#ffffff" stroke="#0b0c0c" stroke-width="2" rx="4"/>
  <text x="1125" y="640" font-size="14" font-weight="bold" text-anchor="middle" fill="#0b0c0c">GOV.UK Notify</text>
</svg>
