<svg viewBox="0 0 1165 695" width="100%" height="100%" xmlns="http://www.w3.org/2000/svg" style="font-family: 'GDS Transport', Arial, sans-serif;">
  <defs>
    <marker id="arrow" viewBox="0 0 10 10" refX="9" refY="5" markerWidth="6" markerHeight="6" orient="auto-start-reverse">
      <path d="M 0 0 L 10 5 L 0 10 z" fill="#0b0c0c" />
    </marker>
    <marker id="arrow-blue" viewBox="0 0 10 10" refX="9" refY="5" markerWidth="6" markerHeight="6" orient="auto-start-reverse">
      <path d="M 0 0 L 10 5 L 0 10 z" fill="#1d70b8" />
    </marker>
  </defs>
  <rect x="33" y="15" width="627" height="165" fill="#f8f8f8" stroke="#b1b4b6" stroke-dasharray="4" rx="4"/>
  <text x="43" y="31" font-size="11" font-weight="bold" fill="#505a5f">PUBLIC / PRESENTATION</text>
  <rect x="280" y="220" width="110" height="295" fill="#f8f8f8" stroke="#b1b4b6" stroke-dasharray="4" rx="4"/>
  <text x="290" y="236" font-size="11" font-weight="bold" fill="#505a5f">INTEGRATION</text>
  <rect x="450" y="290" width="683" height="375" fill="#f8f8f8" stroke="#b1b4b6" stroke-dasharray="4" rx="4"/>
  <text x="460" y="306" font-size="11" font-weight="bold" fill="#505a5f">CORE BACK-OFFICE &amp; DATA</text>
  <path d="M 228 140 L 250 140 L 273 140 L 302 250" fill="none" stroke="#0b0c0c" stroke-width="2" marker-end="url(#arrow)"/>
  <path d="M 228 70 L 250 70 L 273 70 L 309 250" fill="none" stroke="#0b0c0c" stroke-width="2" marker-end="url(#arrow)"/>
  <path d="M 375 457 L 398 503 L 420 503 L 443 503 L 465 499" fill="none" stroke="#0b0c0c" stroke-width="2" marker-end="url(#arrow)"/>
  <path d="M 520 460 L 443 405 L 420 405 L 398 405 L 375 394" fill="none" stroke="#0b0c0c" stroke-width="2" marker-end="url(#arrow)"/>
  <path d="M 645 485 L 668 485 L 690 485 L 713 485" fill="none" stroke="#1d70b8" stroke-width="2" marker-end="url(#arrow-blue)"/>
  <path d="M 595 510 L 668 555 L 690 555 L 713 555" fill="none" stroke="#1d70b8" stroke-width="2" marker-end="url(#arrow-blue)"/>
  <path d="M 579 460 L 668 370 L 690 370 L 713 365" fill="none" stroke="#0b0c0c" stroke-width="2" marker-end="url(#arrow)"/>
  <path d="M 595 460 L 668 415 L 690 415 L 713 415" fill="none" stroke="#0b0c0c" stroke-width="2" marker-end="url(#arrow)"/>
  <path d="M 575 510 L 668 625 L 690 625 L 713 625" fill="none" stroke="#1d70b8" stroke-width="2" marker-end="url(#arrow-blue)"/>
  <path d="M 893 625 L 915 625 L 938 625" fill="none" stroke="#0b0c0c" stroke-width="2" marker-end="url(#arrow)"/>
  <path d="M 375 359 L 398 350 L 420 350 L 443 350 L 555 350 L 668 350 L 690 350 L 713 349" fill="none" stroke="#0b0c0c" stroke-width="2" marker-end="url(#arrow)"/>
  <path d="M 713 329 L 690 325 L 668 325 L 555 325 L 443 325 L 420 325 L 398 325 L 375 343" fill="none" stroke="#0b0c0c" stroke-width="2" marker-end="url(#arrow)"/>
  <path d="M 375 309 L 398 273 L 420 105 L 443 105 L 465 105" fill="none" stroke="#0b0c0c" stroke-width="2" marker-end="url(#arrow)"/>
  <path d="M 138 115 L 138 20 L 803 20 L 803 460" fill="none" stroke="#1d70b8" stroke-width="2" stroke-dasharray="4" marker-end="url(#arrow-blue)"/>
  <text x="470" y="14" font-size="11" font-style="italic" text-anchor="middle" fill="#1d70b8">Direct UPRN / Constraint Queries</text>
  <rect x="48" y="115" width="180" height="50" fill="#ffffff" stroke="#00703c" stroke-width="2" rx="4"/>
  <text x="138" y="135" font-size="14" font-weight="bold" text-anchor="middle" fill="#0b0c0c">Rules Engine (Forms)</text>
  <text x="138" y="152" font-size="11" text-anchor="middle" fill="#505a5f">e.g. PlanX</text>
  <rect x="48" y="45" width="180" height="50" fill="#ffffff" stroke="#1d70b8" stroke-width="2" rx="4"/>
  <text x="138" y="65" font-size="14" font-weight="bold" text-anchor="middle" fill="#0b0c0c">Identity / Auth</text>
  <text x="138" y="82" font-size="11" text-anchor="middle" fill="#505a5f">Agent SSO (OIDC)</text>
  <rect x="465" y="80" width="180" height="50" fill="#ffffff" stroke="#00703c" stroke-width="2" rx="4"/>
  <text x="555" y="100" font-size="14" font-weight="bold" text-anchor="middle" fill="#0b0c0c">Public Register</text>
  <text x="555" y="117" font-size="11" text-anchor="middle" fill="#505a5f">Edge-cached / Read-replica</text>
  <rect x="295" y="250" width="80" height="250" fill="#1d70b8" rx="4"/>
  <text x="335" y="375" font-size="14" font-weight="bold" text-anchor="middle" fill="#ffffff" transform="rotate(-90 335 375)">API Gateway</text>
  <rect x="465" y="460" width="180" height="50" fill="#ffffff" stroke="#1d70b8" stroke-width="2" rx="4"/>
  <text x="555" y="480" font-size="14" font-weight="bold" text-anchor="middle" fill="#0b0c0c">Case Management</text>
  <text x="555" y="497" font-size="11" text-anchor="middle" fill="#505a5f">(Workflow Engine)</text>
  <rect x="713" y="320" width="180" height="50" fill="#ffffff" stroke="#0b0c0c" stroke-width="2" rx="4"/>
  <text x="803" y="340" font-size="14" font-weight="bold" text-anchor="middle" fill="#0b0c0c">Statutory Consultees</text>
  <text x="803" y="357" font-size="11" text-anchor="middle" fill="#505a5f">External APIs</text>
  <rect x="713" y="390" width="180" height="50" fill="#ffffff" stroke="#1d70b8" stroke-width="2" rx="4"/>
  <text x="803" y="410" font-size="14" font-weight="bold" text-anchor="middle" fill="#0b0c0c">Payment Gateway</text>
  <text x="803" y="427" font-size="11" text-anchor="middle" fill="#505a5f">GOV.UK Pay</text>
  <path d="M 713 472 L 893 472 L 893 510 L 713 510 Z" fill="#ffffff" stroke="#505a5f" stroke-width="2"/>
  <path d="M 713 472 Q 803 482 893 472" fill="none" stroke="#505a5f" stroke-width="1"/>
  <ellipse cx="803" cy="472" rx="90" ry="10" fill="#ffffff" stroke="#505a5f" stroke-width="2"/>
  <text x="803" y="493" font-size="14" font-weight="bold" text-anchor="middle" fill="#0b0c0c">Spatial DB</text>
  <path d="M 713 542 L 893 542 L 893 580 L 713 580 Z" fill="#ffffff" stroke="#505a5f" stroke-width="2"/>
  <path d="M 713 542 Q 803 552 893 542" fill="none" stroke="#505a5f" stroke-width="1"/>
  <ellipse cx="803" cy="542" rx="90" ry="10" fill="#ffffff" stroke="#505a5f" stroke-width="2"/>
  <text x="803" y="563" font-size="14" font-weight="bold" text-anchor="middle" fill="#0b0c0c">EDRMS (Docs)</text>
  <rect x="713" y="600" width="180" height="50" fill="#ffffff" stroke="#1d70b8" stroke-width="2" rx="4"/>
  <text x="803" y="620" font-size="14" font-weight="bold" text-anchor="middle" fill="#0b0c0c">Event Broker</text>
  <text x="803" y="637" font-size="11" text-anchor="middle" fill="#505a5f">Pub/Sub</text>
  <rect x="938" y="600" width="180" height="50" fill="#ffffff" stroke="#0b0c0c" stroke-width="2" rx="4"/>
  <text x="1028" y="630" font-size="14" font-weight="bold" text-anchor="middle" fill="#0b0c0c">GOV.UK Notify</text>
</svg>
