<svg viewBox="0 0 920 480" width="100%" height="100%" xmlns="http://www.w3.org/2000/svg" style="font-family: 'GDS Transport', Arial, sans-serif;">
  <defs>
    <marker id="arrow" viewBox="0 0 10 10" refX="9" refY="5" markerWidth="6" markerHeight="6" orient="auto-start-reverse">
      <path d="M 0 0 L 10 5 L 0 10 z" fill="#0b0c0c" />
    </marker>
    <marker id="arrow-blue" viewBox="0 0 10 10" refX="9" refY="5" markerWidth="6" markerHeight="6" orient="auto-start-reverse">
      <path d="M 0 0 L 10 5 L 0 10 z" fill="#1d70b8" />
    </marker>
  </defs>
  <rect x="10" y="30" width="230" height="420" fill="#f8f8f8" stroke="#b1b4b6" stroke-dasharray="4" rx="4"/>
  <text x="20" y="46" font-size="11" font-weight="bold" fill="#505a5f">PUBLIC / PRESENTATION</text>
  <rect x="255" y="30" width="140" height="420" fill="#f8f8f8" stroke="#b1b4b6" stroke-dasharray="4" rx="4"/>
  <text x="265" y="46" font-size="11" font-weight="bold" fill="#505a5f">INTEGRATION</text>
  <rect x="410" y="30" width="500" height="420" fill="#f8f8f8" stroke="#b1b4b6" stroke-dasharray="4" rx="4"/>
  <text x="420" y="46" font-size="11" font-weight="bold" fill="#505a5f">CORE BACK-OFFICE &amp; DATA</text>
  <rect x="30" y="75" width="190" height="50" fill="#ffffff" stroke="#1d70b8" stroke-width="2" rx="4"/>
  <text x="125" y="95" font-size="14" font-weight="bold" text-anchor="middle" fill="#0b0c0c">Rules Engine (Forms)</text>
  <text x="125" y="112" font-size="11" text-anchor="middle" fill="#505a5f">e.g. PlanX</text>
  <rect x="30" y="155" width="190" height="50" fill="#ffffff" stroke="#1d70b8" stroke-width="2" rx="4"/>
  <text x="125" y="175" font-size="14" font-weight="bold" text-anchor="middle" fill="#0b0c0c">Identity / Auth</text>
  <text x="125" y="192" font-size="11" text-anchor="middle" fill="#505a5f">Agent SSO (OIDC)</text>
  <rect x="30" y="355" width="190" height="50" fill="#ffffff" stroke="#00703c" stroke-width="2" rx="4"/>
  <text x="125" y="375" font-size="14" font-weight="bold" text-anchor="middle" fill="#0b0c0c">Public Register</text>
  <text x="125" y="392" font-size="11" text-anchor="middle" fill="#505a5f">Edge-cached / Read-replica</text>
  <rect x="275" y="75" width="100" height="295" fill="#1d70b8" rx="4"/>
  <text x="325" y="222" font-size="14" font-weight="bold" text-anchor="middle" fill="#ffffff" transform="rotate(-90 325 222)">API Gateway</text>
  <rect x="440" y="100" width="210" height="60" fill="#ffffff" stroke="#1d70b8" stroke-width="2" rx="4"/>
  <text x="545" y="125" font-size="14" font-weight="bold" text-anchor="middle" fill="#0b0c0c">Case Management</text>
  <text x="545" y="142" font-size="11" text-anchor="middle" fill="#505a5f">(Workflow Engine)</text>
  <rect x="440" y="230" width="210" height="60" fill="#ffffff" stroke="#1d70b8" stroke-width="2" rx="4"/>
  <text x="545" y="255" font-size="14" font-weight="bold" text-anchor="middle" fill="#0b0c0c">Statutory Consultees</text>
  <text x="545" y="272" font-size="11" text-anchor="middle" fill="#505a5f">External API Integrations</text>
  <rect x="440" y="330" width="210" height="50" fill="#ffffff" stroke="#1d70b8" stroke-width="2" rx="4"/>
  <text x="545" y="350" font-size="14" font-weight="bold" text-anchor="middle" fill="#0b0c0c">Payment Gateway</text>
  <text x="545" y="367" font-size="11" text-anchor="middle" fill="#505a5f">GOV.UK Pay</text>
  <path d="M 710 85 L 860 85 L 860 130 L 710 130 Z" fill="#ffffff" stroke="#505a5f" stroke-width="2"/>
  <path d="M 710 85 Q 785 95 860 85" fill="none" stroke="#505a5f" stroke-width="1"/>
  <ellipse cx="785" cy="85" rx="75" ry="10" fill="#ffffff" stroke="#505a5f" stroke-width="2"/>
  <text x="785" y="112" font-size="14" font-weight="bold" text-anchor="middle" fill="#0b0c0c">Spatial DB</text>
  <path d="M 710 175 L 860 175 L 860 220 L 710 220 Z" fill="#ffffff" stroke="#505a5f" stroke-width="2"/>
  <path d="M 710 175 Q 785 185 860 175" fill="none" stroke="#505a5f" stroke-width="1"/>
  <ellipse cx="785" cy="175" rx="75" ry="10" fill="#ffffff" stroke="#505a5f" stroke-width="2"/>
  <text x="785" y="202" font-size="14" font-weight="bold" text-anchor="middle" fill="#0b0c0c">EDRMS (Docs)</text>
  <rect x="710" y="270" width="150" height="50" fill="#ffffff" stroke="#1d70b8" stroke-width="2" rx="4"/>
  <text x="785" y="290" font-size="14" font-weight="bold" text-anchor="middle" fill="#0b0c0c">Event Broker</text>
  <text x="785" y="307" font-size="11" text-anchor="middle" fill="#505a5f">Pub/Sub</text>
  <rect x="710" y="360" width="150" height="50" fill="#ffffff" stroke="#0b0c0c" stroke-width="2" rx="4"/>
  <text x="785" y="390" font-size="14" font-weight="bold" text-anchor="middle" fill="#0b0c0c">GOV.UK Notify</text>
  <rect x="710" y="420" width="150" height="30" fill="#ffffff" stroke="#0b0c0c" stroke-width="2" rx="4"/>
  <text x="785" y="440" font-size="14" font-weight="bold" text-anchor="middle" fill="#0b0c0c">planning.data.gov.uk</text>
  <line x1="220" y1="100" x2="270" y2="100" stroke="#0b0c0c" stroke-width="2" marker-end="url(#arrow)"/>
  <line x1="220" y1="180" x2="270" y2="180" stroke="#0b0c0c" stroke-width="2" marker-end="url(#arrow)"/>
  <line x1="375" y1="130" x2="435" y2="130" stroke="#0b0c0c" stroke-width="2" marker-end="url(#arrow)"/>
  <line x1="435" y1="145" x2="375" y2="145" stroke="#0b0c0c" stroke-width="2" marker-end="url(#arrow)"/>
  <line x1="375" y1="260" x2="435" y2="260" stroke="#0b0c0c" stroke-width="2" marker-end="url(#arrow)"/>
  <line x1="435" y1="275" x2="375" y2="275" stroke="#0b0c0c" stroke-width="2" marker-end="url(#arrow)"/>
  <line x1="275" y1="375" x2="225" y2="375" stroke="#0b0c0c" stroke-width="2" marker-end="url(#arrow)"/>
  <path d="M 650 110 L 705 110 L 705 90" fill="none" stroke="#1d70b8" stroke-width="2" marker-end="url(#arrow-blue)"/>
  <path d="M 705 105 L 650 105 L 650 125" fill="none" stroke="#1d70b8" stroke-width="2" marker-end="url(#arrow-blue)"/>
  <path d="M 650 140 L 705 140 L 705 180" fill="none" stroke="#1d70b8" stroke-width="2" marker-end="url(#arrow-blue)"/>
  <line x1="545" y1="160" x2="545" y2="265" stroke="#0b0c0c" stroke-width="2" marker-end="url(#arrow)"/>
  <path d="M 650 145 L 785 145 L 785 265" fill="none" stroke="#1d70b8" stroke-width="2" stroke-dasharray="4" marker-end="url(#arrow-blue)"/>
  <line x1="785" y1="320" x2="785" y2="355" stroke="#0b0c0c" stroke-width="2" marker-end="url(#arrow)"/>
  <line x1="785" y1="320" x2="785" y2="415" stroke="#0b0c0c" stroke-width="2" marker-end="url(#arrow)"/>
  <line x1="375" y1="80" x2="705" y2="80" stroke="#1d70b8" stroke-width="2" stroke-dasharray="4" marker-end="url(#arrow-blue)"/>
  <text x="540" y="75" font-size="11" text-anchor="middle" fill="#1d70b8">Direct UPRN / Constraint Queries</text>
  <line x1="545" y1="160" x2="545" y2="325" stroke="#0b0c0c" stroke-width="2" marker-end="url(#arrow)"/>
</svg>
