<svg viewBox="0 0 825 375" width="100%" height="100%" xmlns="http://www.w3.org/2000/svg" style="font-family: 'GDS Transport', Arial, sans-serif;">
  <defs>
    <marker id="arrow" viewBox="0 0 10 10" refX="9" refY="5" markerWidth="6" markerHeight="6" orient="auto-start-reverse">
      <path d="M 0 0 L 10 5 L 0 10 z" fill="#0b0c0c" />
    </marker>
    <marker id="arrow-blue" viewBox="0 0 10 10" refX="9" refY="5" markerWidth="6" markerHeight="6" orient="auto-start-reverse">
      <path d="M 0 0 L 10 5 L 0 10 z" fill="#1d70b8" />
    </marker>
  </defs>
  <rect x="25" y="25" width="220" height="325" fill="#f8f8f8" stroke="#b1b4b6" stroke-dasharray="4" rx="4"/>
  <text x="35" y="41" font-size="11" font-weight="bold" fill="#505a5f">PUBLIC / PRESENTATION</text>
  <rect x="260" y="25" width="110" height="325" fill="#f8f8f8" stroke="#b1b4b6" stroke-dasharray="4" rx="4"/>
  <text x="270" y="41" font-size="11" font-weight="bold" fill="#505a5f">INTEGRATION</text>
  <rect x="385" y="25" width="415" height="325" fill="#f8f8f8" stroke="#b1b4b6" stroke-dasharray="4" rx="4"/>
  <text x="395" y="41" font-size="11" font-weight="bold" fill="#505a5f">CORE BACK-OFFICE &amp; DATA</text>
  <rect x="52" y="55" width="180" height="50" fill="#ffffff" stroke="#00703c" stroke-width="2" rx="4"/>
  <text x="142" y="75" font-size="14" font-weight="bold" text-anchor="middle" fill="#0b0c0c">Rules Engine (Forms)</text>
  <text x="142" y="92" font-size="11" text-anchor="middle" fill="#505a5f">e.g. PlanX</text>
  <rect x="52" y="125" width="180" height="50" fill="#ffffff" stroke="#1d70b8" stroke-width="2" rx="4"/>
  <text x="142" y="145" font-size="14" font-weight="bold" text-anchor="middle" fill="#0b0c0c">Identity / Auth</text>
  <text x="142" y="162" font-size="11" text-anchor="middle" fill="#505a5f">Agent SSO (OIDC)</text>
  <rect x="52" y="265" width="180" height="50" fill="#ffffff" stroke="#00703c" stroke-width="2" rx="4"/>
  <text x="142" y="285" font-size="14" font-weight="bold" text-anchor="middle" fill="#0b0c0c">Public Register</text>
  <text x="142" y="302" font-size="11" text-anchor="middle" fill="#505a5f">Edge-cached / Read-replica</text>
  <rect x="282" y="55" width="80" height="250" fill="#1d70b8" rx="4"/>
  <text x="322" y="180" font-size="14" font-weight="bold" text-anchor="middle" fill="#ffffff" transform="rotate(-90 322 180)">API Gateway</text>
  <rect x="410" y="55" width="180" height="50" fill="#ffffff" stroke="#1d70b8" stroke-width="2" rx="4"/>
  <text x="500" y="75" font-size="14" font-weight="bold" text-anchor="middle" fill="#0b0c0c">Case Management</text>
  <text x="500" y="92" font-size="11" text-anchor="middle" fill="#505a5f">(Workflow Engine)</text>
  <rect x="410" y="125" width="180" height="50" fill="#ffffff" stroke="#0b0c0c" stroke-width="2" rx="4"/>
  <text x="500" y="145" font-size="14" font-weight="bold" text-anchor="middle" fill="#0b0c0c">Statutory Consultees</text>
  <text x="500" y="162" font-size="11" text-anchor="middle" fill="#505a5f">External APIs</text>
  <rect x="410" y="195" width="180" height="50" fill="#ffffff" stroke="#1d70b8" stroke-width="2" rx="4"/>
  <text x="500" y="215" font-size="14" font-weight="bold" text-anchor="middle" fill="#0b0c0c">Payment Gateway</text>
  <text x="500" y="232" font-size="11" text-anchor="middle" fill="#505a5f">GOV.UK Pay</text>
  <path d="M 610 67 L 790 67 L 790 105 L 610 105 Z" fill="#ffffff" stroke="#505a5f" stroke-width="2"/>
  <path d="M 610 67 Q 700 77 790 67" fill="none" stroke="#505a5f" stroke-width="1"/>
  <ellipse cx="700" cy="67" rx="90" ry="10" fill="#ffffff" stroke="#505a5f" stroke-width="2"/>
  <text x="700" y="88" font-size="14" font-weight="bold" text-anchor="middle" fill="#0b0c0c">Spatial DB</text>
  <path d="M 610 137 L 790 137 L 790 175 L 610 175 Z" fill="#ffffff" stroke="#505a5f" stroke-width="2"/>
  <path d="M 610 137 Q 700 147 790 137" fill="none" stroke="#505a5f" stroke-width="1"/>
  <ellipse cx="700" cy="137" rx="90" ry="10" fill="#ffffff" stroke="#505a5f" stroke-width="2"/>
  <text x="700" y="158" font-size="14" font-weight="bold" text-anchor="middle" fill="#0b0c0c">EDRMS (Docs)</text>
  <rect x="610" y="195" width="180" height="50" fill="#ffffff" stroke="#1d70b8" stroke-width="2" rx="4"/>
  <text x="700" y="215" font-size="14" font-weight="bold" text-anchor="middle" fill="#0b0c0c">Event Broker</text>
  <text x="700" y="232" font-size="11" text-anchor="middle" fill="#505a5f">Pub/Sub</text>
  <rect x="610" y="265" width="180" height="50" fill="#ffffff" stroke="#0b0c0c" stroke-width="2" rx="4"/>
  <text x="700" y="295" font-size="14" font-weight="bold" text-anchor="middle" fill="#0b0c0c">GOV.UK Notify</text>
  <path d="M 232 80 L 322 80 L 322 55" fill="none" stroke="#0b0c0c" stroke-width="2" marker-end="url(#arrow)"/>
  <path d="M 232 150 L 282 150 L 282 180" fill="none" stroke="#0b0c0c" stroke-width="2" marker-end="url(#arrow)"/>
  <path d="M 322 55 L 500 55 L 500 105" fill="none" stroke="#0b0c0c" stroke-width="2" marker-end="url(#arrow)"/>
  <line x1="590" y1="80" x2="610" y2="80" stroke="#1d70b8" stroke-width="2" marker-end="url(#arrow-blue)"/>
  <path d="M 590 80 L 700 80 L 700 125" fill="none" stroke="#1d70b8" stroke-width="2" marker-end="url(#arrow-blue)"/>
  <line x1="500" y1="105" x2="500" y2="125" stroke="#0b0c0c" stroke-width="2" marker-end="url(#arrow)"/>
  <line x1="500" y1="105" x2="500" y2="195" stroke="#0b0c0c" stroke-width="2" marker-end="url(#arrow)"/>
  <path d="M 590 80 L 590 195 L 700 195" fill="none" stroke="#1d70b8" stroke-width="2" marker-end="url(#arrow-blue)"/>
  <line x1="700" y1="245" x2="700" y2="265" stroke="#0b0c0c" stroke-width="2" marker-end="url(#arrow)"/>
  <path d="M 362 180 L 410 180 L 410 150" fill="none" stroke="#0b0c0c" stroke-width="2" marker-end="url(#arrow)"/>
  <path d="M 142 55 L 142 20 L 700 20 L 700 55" fill="none" stroke="#1d70b8" stroke-width="2" stroke-dasharray="4" marker-end="url(#arrow-blue)"/>
  <text x="421" y="14" font-size="11" font-style="italic" text-anchor="middle" fill="#1d70b8">Direct UPRN / Constraint Queries</text>
</svg>
