<svg viewBox="0 0 1130 605" width="100%" height="100%" xmlns="http://www.w3.org/2000/svg" style="font-family: 'GDS Transport', Arial, sans-serif;">
  <defs>
    <marker id="arrow" viewBox="0 0 10 10" refX="9" refY="5" markerWidth="6" markerHeight="6" orient="auto-start-reverse">
      <path d="M 0 0 L 10 5 L 0 10 z" fill="#0b0c0c" />
    </marker>
    <marker id="arrow-blue" viewBox="0 0 10 10" refX="9" refY="5" markerWidth="6" markerHeight="6" orient="auto-start-reverse">
      <path d="M 0 0 L 10 5 L 0 10 z" fill="#1d70b8" />
    </marker>
  </defs>
  <rect x="30" y="7" width="610" height="160" fill="#f8f8f8" stroke="#b1b4b6" stroke-dasharray="4" rx="4"/>
  <text x="40" y="23" font-size="11" font-weight="bold" fill="#505a5f">PUBLIC / PRESENTATION</text>
  <rect x="270" y="177" width="110" height="295" fill="#f8f8f8" stroke="#b1b4b6" stroke-dasharray="4" rx="4"/>
  <text x="280" y="193" font-size="11" font-weight="bold" fill="#505a5f">INTEGRATION</text>
  <rect x="430" y="228" width="670" height="355" fill="#f8f8f8" stroke="#b1b4b6" stroke-dasharray="4" rx="4"/>
  <text x="440" y="244" font-size="11" font-weight="bold" fill="#505a5f">CORE BACK-OFFICE &amp; DATA</text>
  <path d="M 225 127 L 245 127 L 265 127 L 289 207" fill="none" stroke="#0b0c0c" stroke-width="2" marker-end="url(#arrow)"/>
  <path d="M 225 62 L 245 62 L 265 62 L 297 207" fill="none" stroke="#0b0c0c" stroke-width="2" marker-end="url(#arrow)"/>
  <path d="M 365 412 L 385 452 L 405 452 L 425 452 L 464 438" fill="none" stroke="#0b0c0c" stroke-width="2" marker-end="url(#arrow)"/>
  <path d="M 495 388 L 425 344 L 405 344 L 385 344 L 365 340" fill="none" stroke="#0b0c0c" stroke-width="2" marker-end="url(#arrow)"/>
  <path d="M 625 413 L 645 413 L 665 413 L 685 413" fill="none" stroke="#1d70b8" stroke-width="2" marker-end="url(#arrow-blue)"/>
  <path d="M 577 438 L 645 478 L 665 478 L 685 478" fill="none" stroke="#1d70b8" stroke-width="2" marker-end="url(#arrow-blue)"/>
  <path d="M 562 388 L 645 312 L 665 312 L 685 306" fill="none" stroke="#0b0c0c" stroke-width="2" marker-end="url(#arrow)"/>
  <path d="M 577 388 L 645 348 L 665 348 L 685 348" fill="none" stroke="#0b0c0c" stroke-width="2" marker-end="url(#arrow)"/>
  <path d="M 556 438 L 645 543 L 665 543 L 685 543" fill="none" stroke="#1d70b8" stroke-width="2" marker-end="url(#arrow-blue)"/>
  <path d="M 865 543 L 885 543 L 905 543" fill="none" stroke="#0b0c0c" stroke-width="2" marker-end="url(#arrow)"/>
  <path d="M 365 313 L 385 304 L 405 304 L 425 304 L 535 304 L 645 304 L 665 304 L 685 300" fill="none" stroke="#0b0c0c" stroke-width="2" marker-end="url(#arrow)"/>
  <path d="M 685 275 L 665 273 L 645 273 L 535 273 L 425 273 L 405 273 L 385 273 L 365 293" fill="none" stroke="#0b0c0c" stroke-width="2" marker-end="url(#arrow)"/>
  <path d="M 365 258 L 385 221 L 405 94 L 425 94 L 445 94" fill="none" stroke="#0b0c0c" stroke-width="2" marker-end="url(#arrow)"/>
  <path d="M 135 102 L 135 20 L 775 20 L 775 388" fill="none" stroke="#1d70b8" stroke-width="2" stroke-dasharray="4" marker-end="url(#arrow-blue)"/>
  <text x="455" y="14" font-size="11" font-style="italic" text-anchor="middle" fill="#1d70b8">Direct UPRN / Constraint Queries</text>
  <rect x="45" y="102" width="180" height="50" fill="#ffffff" stroke="#00703c" stroke-width="2" rx="4"/>
  <text x="135" y="122" font-size="14" font-weight="bold" text-anchor="middle" fill="#0b0c0c">Rules Engine (Forms)</text>
  <text x="135" y="139" font-size="11" text-anchor="middle" fill="#505a5f">e.g. PlanX</text>
  <rect x="45" y="37" width="180" height="50" fill="#ffffff" stroke="#1d70b8" stroke-width="2" rx="4"/>
  <text x="135" y="57" font-size="14" font-weight="bold" text-anchor="middle" fill="#0b0c0c">Identity / Auth</text>
  <text x="135" y="74" font-size="11" text-anchor="middle" fill="#505a5f">Agent SSO (OIDC)</text>
  <rect x="445" y="69" width="180" height="50" fill="#ffffff" stroke="#00703c" stroke-width="2" rx="4"/>
  <text x="535" y="89" font-size="14" font-weight="bold" text-anchor="middle" fill="#0b0c0c">Public Register</text>
  <text x="535" y="106" font-size="11" text-anchor="middle" fill="#505a5f">Edge-cached / Read-replica</text>
  <rect x="285" y="207" width="80" height="250" fill="#1d70b8" rx="4"/>
  <text x="325" y="332" font-size="14" font-weight="bold" text-anchor="middle" fill="#ffffff" transform="rotate(-90 325 332)">API Gateway</text>
  <rect x="445" y="388" width="180" height="50" fill="#ffffff" stroke="#1d70b8" stroke-width="2" rx="4"/>
  <text x="535" y="408" font-size="14" font-weight="bold" text-anchor="middle" fill="#0b0c0c">Case Management</text>
  <text x="535" y="425" font-size="11" text-anchor="middle" fill="#505a5f">(Workflow Engine)</text>
  <rect x="685" y="258" width="180" height="50" fill="#ffffff" stroke="#0b0c0c" stroke-width="2" rx="4"/>
  <text x="775" y="278" font-size="14" font-weight="bold" text-anchor="middle" fill="#0b0c0c">Statutory Consultees</text>
  <text x="775" y="295" font-size="11" text-anchor="middle" fill="#505a5f">External APIs</text>
  <rect x="685" y="323" width="180" height="50" fill="#ffffff" stroke="#1d70b8" stroke-width="2" rx="4"/>
  <text x="775" y="343" font-size="14" font-weight="bold" text-anchor="middle" fill="#0b0c0c">Payment Gateway</text>
  <text x="775" y="360" font-size="11" text-anchor="middle" fill="#505a5f">GOV.UK Pay</text>
  <path d="M 685 400 L 865 400 L 865 438 L 685 438 Z" fill="#ffffff" stroke="#505a5f" stroke-width="2"/>
  <path d="M 685 400 Q 775 410 865 400" fill="none" stroke="#505a5f" stroke-width="1"/>
  <ellipse cx="775" cy="400" rx="90" ry="10" fill="#ffffff" stroke="#505a5f" stroke-width="2"/>
  <text x="775" y="421" font-size="14" font-weight="bold" text-anchor="middle" fill="#0b0c0c">Spatial DB</text>
  <path d="M 685 465 L 865 465 L 865 503 L 685 503 Z" fill="#ffffff" stroke="#505a5f" stroke-width="2"/>
  <path d="M 685 465 Q 775 475 865 465" fill="none" stroke="#505a5f" stroke-width="1"/>
  <ellipse cx="775" cy="465" rx="90" ry="10" fill="#ffffff" stroke="#505a5f" stroke-width="2"/>
  <text x="775" y="486" font-size="14" font-weight="bold" text-anchor="middle" fill="#0b0c0c">EDRMS (Docs)</text>
  <rect x="685" y="518" width="180" height="50" fill="#ffffff" stroke="#1d70b8" stroke-width="2" rx="4"/>
  <text x="775" y="538" font-size="14" font-weight="bold" text-anchor="middle" fill="#0b0c0c">Event Broker</text>
  <text x="775" y="555" font-size="11" text-anchor="middle" fill="#505a5f">Pub/Sub</text>
  <rect x="905" y="518" width="180" height="50" fill="#ffffff" stroke="#0b0c0c" stroke-width="2" rx="4"/>
  <text x="995" y="548" font-size="14" font-weight="bold" text-anchor="middle" fill="#0b0c0c">GOV.UK Notify</text>
</svg>
