<svg viewBox="0 0 690 235" width="100%" height="100%" xmlns="http://www.w3.org/2000/svg" style="font-family: 'GDS Transport', Arial, sans-serif;">
  <defs>
    <marker id="arrow" viewBox="0 0 10 10" refX="9" refY="5" markerWidth="6" markerHeight="6" orient="auto-start-reverse">
      <path d="M 0 0 L 10 5 L 0 10 z" fill="#0b0c0c" />
    </marker>
    <marker id="arrow-blue" viewBox="0 0 10 10" refX="9" refY="5" markerWidth="6" markerHeight="6" orient="auto-start-reverse">
      <path d="M 0 0 L 10 5 L 0 10 z" fill="#1d70b8" />
    </marker>
  </defs>
  <rect x="25" y="25" width="200" height="185" fill="#f8f8f8" stroke="#b1b4b6" stroke-dasharray="4" rx="4"/>
  <text x="35" y="41" font-size="11" font-weight="bold" fill="#505a5f">CITIZEN INPUT</text>
  <rect x="240" y="25" width="210" height="185" fill="#f8f8f8" stroke="#b1b4b6" stroke-dasharray="4" rx="4"/>
  <text x="250" y="41" font-size="11" font-weight="bold" fill="#505a5f">PROCESSING</text>
  <rect x="465" y="25" width="200" height="185" fill="#f8f8f8" stroke="#b1b4b6" stroke-dasharray="4" rx="4"/>
  <text x="475" y="41" font-size="11" font-weight="bold" fill="#505a5f">STORAGE</text>
  <rect x="42" y="55" width="180" height="50" fill="#ffffff" stroke="#0b0c0c" stroke-width="2" rx="4"/>
  <text x="132" y="85" font-size="14" font-weight="bold" text-anchor="middle" fill="#0b0c0c">Applicant</text>
  <rect x="262" y="55" width="180" height="50" fill="#ffffff" stroke="#d4351c" stroke-width="2" rx="4"/>
  <text x="352" y="75" font-size="14" font-weight="bold" text-anchor="middle" fill="#0b0c0c">Generic E-Form</text>
  <text x="352" y="92" font-size="11" text-anchor="middle" fill="#505a5f">No rules, no validation</text>
  <rect x="482" y="55" width="180" height="50" fill="#ffffff" stroke="#d4351c" stroke-width="2" rx="4"/>
  <text x="572" y="75" font-size="14" font-weight="bold" text-anchor="middle" fill="#0b0c0c">Flat PDF</text>
  <text x="572" y="92" font-size="11" text-anchor="middle" fill="#505a5f">Unstructured</text>
  <rect x="482" y="125" width="180" height="50" fill="#ffffff" stroke="#d4351c" stroke-width="2" rx="4"/>
  <text x="572" y="145" font-size="14" font-weight="bold" text-anchor="middle" fill="#0b0c0c">Basic Metadata</text>
  <text x="572" y="162" font-size="11" text-anchor="middle" fill="#505a5f">Manual re-keying needed</text>
  <line x1="222" y1="80" x2="262" y2="80" stroke="#0b0c0c" stroke-width="2" marker-end="url(#arrow)"/>
  <text x="242" y="72" font-size="11" font-style="italic" text-anchor="middle" fill="#0b0c0c">Fills in form</text>
  <line x1="442" y1="80" x2="482" y2="80" stroke="#0b0c0c" stroke-width="2" marker-end="url(#arrow)"/>
  <text x="462" y="72" font-size="11" font-style="italic" text-anchor="middle" fill="#0b0c0c">Generates flat PDF</text>
  <path d="M 442 80 L 572 80 L 572 125" fill="none" stroke="#0b0c0c" stroke-width="2" marker-end="url(#arrow)"/>
  <text x="507" y="72" font-size="11" font-style="italic" text-anchor="middle" fill="#0b0c0c">Captures minimal fields</text>
</svg>
