<svg viewBox="0 0 890 215" width="100%" height="100%" xmlns="http://www.w3.org/2000/svg" style="font-family: 'GDS Transport', Arial, sans-serif;">
  <defs>
    <marker id="arrow" viewBox="0 0 10 10" refX="9" refY="5" markerWidth="6" markerHeight="6" orient="auto-start-reverse">
      <path d="M 0 0 L 10 5 L 0 10 z" fill="#0b0c0c" />
    </marker>
    <marker id="arrow-blue" viewBox="0 0 10 10" refX="9" refY="5" markerWidth="6" markerHeight="6" orient="auto-start-reverse">
      <path d="M 0 0 L 10 5 L 0 10 z" fill="#1d70b8" />
    </marker>
  </defs>
  <rect x="40" y="53" width="210" height="95" fill="#f8f8f8" stroke="#b1b4b6" stroke-dasharray="4" rx="4"/>
  <text x="50" y="69" font-size="11" font-weight="bold" fill="#505a5f">CITIZEN INPUT</text>
  <rect x="340" y="53" width="210" height="95" fill="#f8f8f8" stroke="#b1b4b6" stroke-dasharray="4" rx="4"/>
  <text x="350" y="69" font-size="11" font-weight="bold" fill="#505a5f">PROCESSING</text>
  <rect x="640" y="15" width="210" height="170" fill="#f8f8f8" stroke="#b1b4b6" stroke-dasharray="4" rx="4"/>
  <text x="650" y="31" font-size="11" font-weight="bold" fill="#505a5f">STORAGE</text>
  <path d="M 235 108 L 265 108 L 295 108 L 325 108 L 355 108" fill="none" stroke="#0b0c0c" stroke-width="2" marker-end="url(#arrow)"/>
  <text x="295" y="98" font-size="11" font-style="italic" text-anchor="middle" fill="#0b0c0c">Fills in form</text>
  <path d="M 525 133 L 565 145 L 595 145 L 625 145 L 655 145" fill="none" stroke="#0b0c0c" stroke-width="2" marker-end="url(#arrow)"/>
  <text x="595" y="135" font-size="11" font-style="italic" text-anchor="middle" fill="#0b0c0c">Generates flat PDF</text>
  <path d="M 525 83 L 565 70 L 595 70 L 625 70 L 655 70" fill="none" stroke="#0b0c0c" stroke-width="2" marker-end="url(#arrow)"/>
  <text x="595" y="60" font-size="11" font-style="italic" text-anchor="middle" fill="#0b0c0c">Captures minimal fields</text>
  <rect x="55" y="83" width="180" height="50" fill="#ffffff" stroke="#0b0c0c" stroke-width="2" rx="4"/>
  <text x="145" y="113" font-size="14" font-weight="bold" text-anchor="middle" fill="#0b0c0c">Applicant</text>
  <rect x="355" y="83" width="180" height="50" fill="#ffffff" stroke="#d4351c" stroke-width="2" rx="4"/>
  <text x="445" y="103" font-size="14" font-weight="bold" text-anchor="middle" fill="#0b0c0c">Generic E-Form</text>
  <text x="445" y="120" font-size="11" text-anchor="middle" fill="#505a5f">No rules, no validation</text>
  <rect x="655" y="120" width="180" height="50" fill="#ffffff" stroke="#d4351c" stroke-width="2" rx="4"/>
  <text x="745" y="140" font-size="14" font-weight="bold" text-anchor="middle" fill="#0b0c0c">Flat PDF</text>
  <text x="745" y="157" font-size="11" text-anchor="middle" fill="#505a5f">Unstructured</text>
  <rect x="655" y="45" width="180" height="50" fill="#ffffff" stroke="#d4351c" stroke-width="2" rx="4"/>
  <text x="745" y="65" font-size="14" font-weight="bold" text-anchor="middle" fill="#0b0c0c">Basic Metadata</text>
  <text x="745" y="82" font-size="11" text-anchor="middle" fill="#505a5f">Manual re-keying needed</text>
</svg>
