<svg viewBox="0 0 780 235" width="100%" height="100%" xmlns="http://www.w3.org/2000/svg" style="font-family: 'GDS Transport', Arial, sans-serif;">
  <defs>
    <marker id="arrow" viewBox="0 0 10 10" refX="9" refY="5" markerWidth="6" markerHeight="6" orient="auto-start-reverse">
      <path d="M 0 0 L 10 5 L 0 10 z" fill="#0b0c0c" />
    </marker>
    <marker id="arrow-blue" viewBox="0 0 10 10" refX="9" refY="5" markerWidth="6" markerHeight="6" orient="auto-start-reverse">
      <path d="M 0 0 L 10 5 L 0 10 z" fill="#1d70b8" />
    </marker>
  </defs>
  <rect x="25" y="25" width="200" height="185" fill="#f8f8f8" stroke="#b1b4b6" stroke-dasharray="4" rx="4"/>
  <text x="35" y="41" font-size="11" font-weight="bold" fill="#505a5f">CITIZEN INPUT</text>
  <rect x="285" y="25" width="210" height="185" fill="#f8f8f8" stroke="#b1b4b6" stroke-dasharray="4" rx="4"/>
  <text x="295" y="41" font-size="11" font-weight="bold" fill="#505a5f">PROCESSING</text>
  <rect x="555" y="25" width="200" height="185" fill="#f8f8f8" stroke="#b1b4b6" stroke-dasharray="4" rx="4"/>
  <text x="565" y="41" font-size="11" font-weight="bold" fill="#505a5f">STORAGE</text>
  <path d="M 215 80 L 300 80" fill="none" stroke="#0b0c0c" stroke-width="2" marker-end="url(#arrow)"/>
  <text x="257" y="72" font-size="11" font-style="italic" text-anchor="middle" fill="#0b0c0c">Fills in form</text>
  <path d="M 480 71 L 565 80" fill="none" stroke="#0b0c0c" stroke-width="2" marker-end="url(#arrow)"/>
  <text x="522" y="67" font-size="11" font-style="italic" text-anchor="middle" fill="#0b0c0c">Generates flat PDF</text>
  <path d="M 480 88 L 565 150" fill="none" stroke="#0b0c0c" stroke-width="2" marker-end="url(#arrow)"/>
  <text x="522" y="111" font-size="11" font-style="italic" text-anchor="middle" fill="#0b0c0c">Captures minimal fields</text>
  <rect x="35" y="55" width="180" height="50" fill="#ffffff" stroke="#0b0c0c" stroke-width="2" rx="4"/>
  <text x="125" y="85" font-size="14" font-weight="bold" text-anchor="middle" fill="#0b0c0c">Applicant</text>
  <rect x="300" y="55" width="180" height="50" fill="#ffffff" stroke="#d4351c" stroke-width="2" rx="4"/>
  <text x="390" y="75" font-size="14" font-weight="bold" text-anchor="middle" fill="#0b0c0c">Generic E-Form</text>
  <text x="390" y="92" font-size="11" text-anchor="middle" fill="#505a5f">No rules, no validation</text>
  <rect x="565" y="55" width="180" height="50" fill="#ffffff" stroke="#d4351c" stroke-width="2" rx="4"/>
  <text x="655" y="75" font-size="14" font-weight="bold" text-anchor="middle" fill="#0b0c0c">Flat PDF</text>
  <text x="655" y="92" font-size="11" text-anchor="middle" fill="#505a5f">Unstructured</text>
  <rect x="565" y="125" width="180" height="50" fill="#ffffff" stroke="#d4351c" stroke-width="2" rx="4"/>
  <text x="655" y="145" font-size="14" font-weight="bold" text-anchor="middle" fill="#0b0c0c">Basic Metadata</text>
  <text x="655" y="162" font-size="11" text-anchor="middle" fill="#505a5f">Manual re-keying needed</text>
</svg>
