<svg viewBox="0 0 815 210" width="100%" height="100%" xmlns="http://www.w3.org/2000/svg" style="font-family: 'GDS Transport', Arial, sans-serif;">
  <defs>
    <marker id="arrow" viewBox="0 0 10 10" refX="9" refY="5" markerWidth="6" markerHeight="6" orient="auto-start-reverse">
      <path d="M 0 0 L 10 5 L 0 10 z" fill="#0b0c0c" />
    </marker>
    <marker id="arrow-blue" viewBox="0 0 10 10" refX="9" refY="5" markerWidth="6" markerHeight="6" orient="auto-start-reverse">
      <path d="M 0 0 L 10 5 L 0 10 z" fill="#1d70b8" />
    </marker>
  </defs>
  <rect x="33" y="50" width="210" height="95" fill="#f8f8f8" stroke="#b1b4b6" stroke-dasharray="4" rx="4"/>
  <text x="43" y="66" font-size="11" font-weight="bold" fill="#505a5f">CITIZEN INPUT</text>
  <rect x="303" y="50" width="210" height="95" fill="#f8f8f8" stroke="#b1b4b6" stroke-dasharray="4" rx="4"/>
  <text x="313" y="66" font-size="11" font-weight="bold" fill="#505a5f">PROCESSING</text>
  <rect x="573" y="15" width="210" height="165" fill="#f8f8f8" stroke="#b1b4b6" stroke-dasharray="4" rx="4"/>
  <text x="583" y="31" font-size="11" font-weight="bold" fill="#505a5f">STORAGE</text>
  <path d="M 228 105 L 250 105 L 273 105 L 295 105 L 318 105" fill="none" stroke="#0b0c0c" stroke-width="2" marker-end="url(#arrow)"/>
  <text x="273" y="95" font-size="11" font-style="italic" text-anchor="middle" fill="#0b0c0c">Fills in form</text>
  <path d="M 488 130 L 520 140 L 543 140 L 565 140 L 588 140" fill="none" stroke="#0b0c0c" stroke-width="2" marker-end="url(#arrow)"/>
  <text x="543" y="130" font-size="11" font-style="italic" text-anchor="middle" fill="#0b0c0c">Generates flat PDF</text>
  <path d="M 488 80 L 520 70 L 543 70 L 565 70 L 588 70" fill="none" stroke="#0b0c0c" stroke-width="2" marker-end="url(#arrow)"/>
  <text x="543" y="60" font-size="11" font-style="italic" text-anchor="middle" fill="#0b0c0c">Captures minimal fields</text>
  <rect x="48" y="80" width="180" height="50" fill="#ffffff" stroke="#0b0c0c" stroke-width="2" rx="4"/>
  <text x="138" y="110" font-size="14" font-weight="bold" text-anchor="middle" fill="#0b0c0c">Applicant</text>
  <rect x="318" y="80" width="180" height="50" fill="#ffffff" stroke="#d4351c" stroke-width="2" rx="4"/>
  <text x="408" y="100" font-size="14" font-weight="bold" text-anchor="middle" fill="#0b0c0c">Generic E-Form</text>
  <text x="408" y="117" font-size="11" text-anchor="middle" fill="#505a5f">No rules, no validation</text>
  <rect x="588" y="115" width="180" height="50" fill="#ffffff" stroke="#d4351c" stroke-width="2" rx="4"/>
  <text x="678" y="135" font-size="14" font-weight="bold" text-anchor="middle" fill="#0b0c0c">Flat PDF</text>
  <text x="678" y="152" font-size="11" text-anchor="middle" fill="#505a5f">Unstructured</text>
  <rect x="588" y="45" width="180" height="50" fill="#ffffff" stroke="#d4351c" stroke-width="2" rx="4"/>
  <text x="678" y="65" font-size="14" font-weight="bold" text-anchor="middle" fill="#0b0c0c">Basic Metadata</text>
  <text x="678" y="82" font-size="11" text-anchor="middle" fill="#505a5f">Manual re-keying needed</text>
</svg>
