<svg viewBox="0 0 820 200" width="100%" height="100%" xmlns="http://www.w3.org/2000/svg" style="font-family: 'GDS Transport', Arial, sans-serif;">
  <defs>
    <marker id="arrow" viewBox="0 0 10 10" refX="9" refY="5" markerWidth="6" markerHeight="6" orient="auto-start-reverse">
      <path d="M 0 0 L 10 5 L 0 10 z" fill="#0b0c0c" />
    </marker>
    <marker id="arrow-blue" viewBox="0 0 10 10" refX="9" refY="5" markerWidth="6" markerHeight="6" orient="auto-start-reverse">
      <path d="M 0 0 L 10 5 L 0 10 z" fill="#1d70b8" />
    </marker>
  </defs>
  <rect x="20" y="75" width="130" height="50" fill="#ffffff" stroke="#0b0c0c" stroke-width="2" rx="4"/>
  <text x="85" y="105" font-size="14" font-weight="bold" text-anchor="middle" fill="#0b0c0c">Applicant</text>
  <rect x="210" y="75" width="170" height="50" fill="#ffffff" stroke="#d4351c" stroke-width="2" rx="4"/>
  <text x="295" y="105" font-size="14" font-weight="bold" text-anchor="middle" fill="#0b0c0c">Generic E-Form</text>
  <rect x="490" y="20" width="170" height="50" fill="#ffffff" stroke="#505a5f" stroke-width="2" rx="4"/>
  <text x="575" y="50" font-size="14" font-weight="bold" text-anchor="middle" fill="#0b0c0c">Doc Repository</text>
  <rect x="490" y="130" width="170" height="50" fill="#ffffff" stroke="#505a5f" stroke-width="2" rx="4"/>
  <text x="575" y="160" font-size="14" font-weight="bold" text-anchor="middle" fill="#0b0c0c">Workflow DB</text>
  <line x1="150" y1="100" x2="205" y2="100" stroke="#0b0c0c" stroke-width="2" marker-end="url(#arrow)"/>
  <path d="M 380 80 L 485 80 L 485 45" fill="none" stroke="#d4351c" stroke-width="2" marker-end="url(#arrow)"/>
  <text x="432" y="57" font-size="11" text-anchor="middle" fill="#d4351c">Generates Flat PDF</text>
  <path d="M 380 120 L 485 120 L 485 155" fill="none" stroke="#0b0c0c" stroke-width="2" marker-end="url(#arrow)"/>
  <text x="432" y="132" font-size="11" text-anchor="middle" fill="#0b0c0c">Basic Metadata</text>
</svg>
