<svg viewBox="0 0 790 188" width="100%" height="100%" xmlns="http://www.w3.org/2000/svg" style="font-family: 'GDS Transport', Arial, sans-serif;">
  <defs>
    <marker id="arrow" viewBox="0 0 10 10" refX="9" refY="5" markerWidth="6" markerHeight="6" orient="auto-start-reverse">
      <path d="M 0 0 L 10 5 L 0 10 z" fill="#0b0c0c" />
    </marker>
    <marker id="arrow-blue" viewBox="0 0 10 10" refX="9" refY="5" markerWidth="6" markerHeight="6" orient="auto-start-reverse">
      <path d="M 0 0 L 10 5 L 0 10 z" fill="#1d70b8" />
    </marker>
  </defs>
  <rect x="30" y="39" width="210" height="95" fill="#f8f8f8" stroke="#b1b4b6" stroke-dasharray="4" rx="4"/>
  <text x="40" y="55" font-size="11" font-weight="bold" fill="#505a5f">CITIZEN INPUT</text>
  <rect x="290" y="39" width="210" height="95" fill="#f8f8f8" stroke="#b1b4b6" stroke-dasharray="4" rx="4"/>
  <text x="300" y="55" font-size="11" font-weight="bold" fill="#505a5f">PROCESSING</text>
  <rect x="550" y="7" width="210" height="160" fill="#f8f8f8" stroke="#b1b4b6" stroke-dasharray="4" rx="4"/>
  <text x="560" y="23" font-size="11" font-weight="bold" fill="#505a5f">STORAGE</text>
  <path d="M 225 94 L 245 94 L 265 94 L 285 94 L 305 94" fill="none" stroke="#0b0c0c" stroke-width="2" marker-end="url(#arrow)"/>
  <text x="265" y="84" font-size="11" font-style="italic" text-anchor="middle" fill="#0b0c0c">Fills in form</text>
  <path d="M 480 119 L 505 127 L 525 127 L 545 127 L 565 127" fill="none" stroke="#0b0c0c" stroke-width="2" marker-end="url(#arrow)"/>
  <text x="525" y="117" font-size="11" font-style="italic" text-anchor="middle" fill="#0b0c0c">Generates flat PDF</text>
  <path d="M 480 69 L 505 62 L 525 62 L 545 62 L 565 62" fill="none" stroke="#0b0c0c" stroke-width="2" marker-end="url(#arrow)"/>
  <text x="525" y="52" font-size="11" font-style="italic" text-anchor="middle" fill="#0b0c0c">Captures minimal fields</text>
  <rect x="45" y="69" width="180" height="50" fill="#ffffff" stroke="#0b0c0c" stroke-width="2" rx="4"/>
  <text x="135" y="99" font-size="14" font-weight="bold" text-anchor="middle" fill="#0b0c0c">Applicant</text>
  <rect x="305" y="69" width="180" height="50" fill="#ffffff" stroke="#d4351c" stroke-width="2" rx="4"/>
  <text x="395" y="89" font-size="14" font-weight="bold" text-anchor="middle" fill="#0b0c0c">Generic E-Form</text>
  <text x="395" y="106" font-size="11" text-anchor="middle" fill="#505a5f">No rules, no validation</text>
  <rect x="565" y="102" width="180" height="50" fill="#ffffff" stroke="#d4351c" stroke-width="2" rx="4"/>
  <text x="655" y="122" font-size="14" font-weight="bold" text-anchor="middle" fill="#0b0c0c">Flat PDF</text>
  <text x="655" y="139" font-size="11" text-anchor="middle" fill="#505a5f">Unstructured</text>
  <rect x="565" y="37" width="180" height="50" fill="#ffffff" stroke="#d4351c" stroke-width="2" rx="4"/>
  <text x="655" y="57" font-size="14" font-weight="bold" text-anchor="middle" fill="#0b0c0c">Basic Metadata</text>
  <text x="655" y="74" font-size="11" text-anchor="middle" fill="#505a5f">Manual re-keying needed</text>
</svg>
