<svg viewBox="0 0 875 340" width="100%" height="100%" xmlns="http://www.w3.org/2000/svg" style="font-family: 'GDS Transport', Arial, sans-serif;">
  <defs>
    <marker id="arrow" viewBox="0 0 10 10" refX="9" refY="5" markerWidth="6" markerHeight="6" orient="auto-start-reverse">
      <path d="M 0 0 L 10 5 L 0 10 z" fill="#0b0c0c" />
    </marker>
    <marker id="arrow-blue" viewBox="0 0 10 10" refX="9" refY="5" markerWidth="6" markerHeight="6" orient="auto-start-reverse">
      <path d="M 0 0 L 10 5 L 0 10 z" fill="#1d70b8" />
    </marker>
  </defs>
  <rect x="43" y="115" width="210" height="95" fill="#f8f8f8" stroke="#b1b4b6" stroke-dasharray="4" rx="4"/>
  <text x="53" y="131" font-size="11" font-weight="bold" fill="#505a5f">CITIZEN INPUT</text>
  <rect x="333" y="115" width="210" height="95" fill="#f8f8f8" stroke="#b1b4b6" stroke-dasharray="4" rx="4"/>
  <text x="343" y="131" font-size="11" font-weight="bold" fill="#505a5f">RULES ENGINE</text>
  <rect x="623" y="25" width="210" height="275" fill="#f8f8f8" stroke="#b1b4b6" stroke-dasharray="4" rx="4"/>
  <text x="633" y="41" font-size="11" font-weight="bold" fill="#505a5f">BACK-OFFICE</text>
  <path d="M 248 170 L 270 170 L 293 170 L 315 170 L 338 170" fill="none" stroke="#0b0c0c" stroke-width="2" marker-end="url(#arrow)"/>
  <path d="M 485 205 L 560 260 L 583 260 L 605 260 L 628 260" fill="none" stroke="#1d70b8" stroke-width="2" marker-end="url(#arrow-blue)"/>
  <text x="583" y="250" font-size="11" font-style="italic" text-anchor="middle" fill="#1d70b8">Live spatial lookup</text>
  <path d="M 538 170 L 560 170 L 583 170 L 605 170 L 628 170" fill="none" stroke="#0b0c0c" stroke-width="2" marker-end="url(#arrow)"/>
  <text x="583" y="160" font-size="11" font-style="italic" text-anchor="middle" fill="#0b0c0c">Structured JSON</text>
  <path d="M 485 135 L 560 80 L 583 80 L 605 80 L 628 80" fill="none" stroke="#1d70b8" stroke-width="2" marker-end="url(#arrow-blue)"/>
  <text x="583" y="70" font-size="11" font-style="italic" text-anchor="middle" fill="#1d70b8">Calculates fee</text>
  <rect x="58" y="145" width="180" height="50" fill="#ffffff" stroke="#0b0c0c" stroke-width="2" rx="4"/>
  <text x="148" y="165" font-size="14" font-weight="bold" text-anchor="middle" fill="#0b0c0c">Agent</text>
  <text x="148" y="182" font-size="11" text-anchor="middle" fill="#505a5f">(OIDC Identity)</text>
  <rect x="348" y="145" width="180" height="50" fill="#ffffff" stroke="#00703c" stroke-width="2" rx="4"/>
  <text x="438" y="165" font-size="14" font-weight="bold" text-anchor="middle" fill="#0b0c0c">Rules-as-code</text>
  <text x="438" y="182" font-size="11" text-anchor="middle" fill="#505a5f">Dynamic Frontend</text>
  <rect x="638" y="235" width="180" height="50" fill="#ffffff" stroke="#1d70b8" stroke-width="2" rx="4"/>
  <text x="728" y="265" font-size="14" font-weight="bold" text-anchor="middle" fill="#0b0c0c">Geospatial API</text>
  <rect x="638" y="145" width="180" height="50" fill="#ffffff" stroke="#1d70b8" stroke-width="2" rx="4"/>
  <text x="728" y="175" font-size="14" font-weight="bold" text-anchor="middle" fill="#0b0c0c">Workflow Engine</text>
  <rect x="638" y="55" width="180" height="50" fill="#ffffff" stroke="#1d70b8" stroke-width="2" rx="4"/>
  <text x="728" y="85" font-size="14" font-weight="bold" text-anchor="middle" fill="#0b0c0c">Payment Gateway</text>
</svg>
