<svg viewBox="0 0 790 253" width="100%" height="100%" xmlns="http://www.w3.org/2000/svg" style="font-family: 'GDS Transport', Arial, sans-serif;">
  <defs>
    <marker id="arrow" viewBox="0 0 10 10" refX="9" refY="5" markerWidth="6" markerHeight="6" orient="auto-start-reverse">
      <path d="M 0 0 L 10 5 L 0 10 z" fill="#0b0c0c" />
    </marker>
    <marker id="arrow-blue" viewBox="0 0 10 10" refX="9" refY="5" markerWidth="6" markerHeight="6" orient="auto-start-reverse">
      <path d="M 0 0 L 10 5 L 0 10 z" fill="#1d70b8" />
    </marker>
  </defs>
  <rect x="30" y="72" width="210" height="95" fill="#f8f8f8" stroke="#b1b4b6" stroke-dasharray="4" rx="4"/>
  <text x="40" y="88" font-size="11" font-weight="bold" fill="#505a5f">CITIZEN INPUT</text>
  <rect x="290" y="72" width="210" height="95" fill="#f8f8f8" stroke="#b1b4b6" stroke-dasharray="4" rx="4"/>
  <text x="300" y="88" font-size="11" font-weight="bold" fill="#505a5f">RULES ENGINE</text>
  <rect x="550" y="7" width="210" height="225" fill="#f8f8f8" stroke="#b1b4b6" stroke-dasharray="4" rx="4"/>
  <text x="560" y="23" font-size="11" font-weight="bold" fill="#505a5f">BACK-OFFICE</text>
  <path d="M 225 127 L 245 127 L 265 127 L 285 127 L 305 127" fill="none" stroke="#0b0c0c" stroke-width="2" marker-end="url(#arrow)"/>
  <path d="M 437 152 L 505 192 L 525 192 L 545 192 L 565 192" fill="none" stroke="#1d70b8" stroke-width="2" marker-end="url(#arrow-blue)"/>
  <text x="525" y="182" font-size="11" font-style="italic" text-anchor="middle" fill="#1d70b8">Live spatial lookup</text>
  <path d="M 485 127 L 505 127 L 525 127 L 545 127 L 565 127" fill="none" stroke="#0b0c0c" stroke-width="2" marker-end="url(#arrow)"/>
  <text x="525" y="117" font-size="11" font-style="italic" text-anchor="middle" fill="#0b0c0c">Structured JSON</text>
  <path d="M 437 102 L 505 62 L 525 62 L 545 62 L 565 62" fill="none" stroke="#1d70b8" stroke-width="2" marker-end="url(#arrow-blue)"/>
  <text x="525" y="52" font-size="11" font-style="italic" text-anchor="middle" fill="#1d70b8">Calculates fee</text>
  <rect x="45" y="102" width="180" height="50" fill="#ffffff" stroke="#0b0c0c" stroke-width="2" rx="4"/>
  <text x="135" y="122" font-size="14" font-weight="bold" text-anchor="middle" fill="#0b0c0c">Agent</text>
  <text x="135" y="139" font-size="11" text-anchor="middle" fill="#505a5f">(OIDC Identity)</text>
  <rect x="305" y="102" width="180" height="50" fill="#ffffff" stroke="#00703c" stroke-width="2" rx="4"/>
  <text x="395" y="122" font-size="14" font-weight="bold" text-anchor="middle" fill="#0b0c0c">Rules-as-code</text>
  <text x="395" y="139" font-size="11" text-anchor="middle" fill="#505a5f">Dynamic Frontend</text>
  <rect x="565" y="167" width="180" height="50" fill="#ffffff" stroke="#1d70b8" stroke-width="2" rx="4"/>
  <text x="655" y="197" font-size="14" font-weight="bold" text-anchor="middle" fill="#0b0c0c">Geospatial API</text>
  <rect x="565" y="102" width="180" height="50" fill="#ffffff" stroke="#1d70b8" stroke-width="2" rx="4"/>
  <text x="655" y="132" font-size="14" font-weight="bold" text-anchor="middle" fill="#0b0c0c">Workflow Engine</text>
  <rect x="565" y="37" width="180" height="50" fill="#ffffff" stroke="#1d70b8" stroke-width="2" rx="4"/>
  <text x="655" y="67" font-size="14" font-weight="bold" text-anchor="middle" fill="#0b0c0c">Payment Gateway</text>
</svg>
