<svg viewBox="0 0 690 305" width="100%" height="100%" xmlns="http://www.w3.org/2000/svg" style="font-family: 'GDS Transport', Arial, sans-serif;">
  <defs>
    <marker id="arrow" viewBox="0 0 10 10" refX="9" refY="5" markerWidth="6" markerHeight="6" orient="auto-start-reverse">
      <path d="M 0 0 L 10 5 L 0 10 z" fill="#0b0c0c" />
    </marker>
    <marker id="arrow-blue" viewBox="0 0 10 10" refX="9" refY="5" markerWidth="6" markerHeight="6" orient="auto-start-reverse">
      <path d="M 0 0 L 10 5 L 0 10 z" fill="#1d70b8" />
    </marker>
  </defs>
  <rect x="25" y="25" width="200" height="255" fill="#f8f8f8" stroke="#b1b4b6" stroke-dasharray="4" rx="4"/>
  <text x="35" y="41" font-size="11" font-weight="bold" fill="#505a5f">CITIZEN INPUT</text>
  <rect x="240" y="25" width="210" height="255" fill="#f8f8f8" stroke="#b1b4b6" stroke-dasharray="4" rx="4"/>
  <text x="250" y="41" font-size="11" font-weight="bold" fill="#505a5f">RULES ENGINE</text>
  <rect x="465" y="25" width="200" height="255" fill="#f8f8f8" stroke="#b1b4b6" stroke-dasharray="4" rx="4"/>
  <text x="475" y="41" font-size="11" font-weight="bold" fill="#505a5f">BACK-OFFICE</text>
  <line x1="219" y1="80" x2="251" y2="80" stroke="#0b0c0c" stroke-width="2" marker-end="url(#arrow)"/>
  <line x1="439" y1="80" x2="471" y2="80" stroke="#1d70b8" stroke-width="2" marker-end="url(#arrow-blue)"/>
  <text x="455" y="72" font-size="11" font-style="italic" text-anchor="middle" fill="#1d70b8">Live spatial lookup</text>
  <path d="M 439 80 L 565 80 L 565 121" fill="none" stroke="#0b0c0c" stroke-width="2" marker-end="url(#arrow)"/>
  <text x="502" y="72" font-size="11" font-style="italic" text-anchor="middle" fill="#0b0c0c">Structured JSON</text>
  <path d="M 439 80 L 565 80 L 565 191" fill="none" stroke="#1d70b8" stroke-width="2" marker-end="url(#arrow-blue)"/>
  <text x="502" y="72" font-size="11" font-style="italic" text-anchor="middle" fill="#1d70b8">Calculates fee</text>
  <rect x="35" y="55" width="180" height="50" fill="#ffffff" stroke="#0b0c0c" stroke-width="2" rx="4"/>
  <text x="125" y="75" font-size="14" font-weight="bold" text-anchor="middle" fill="#0b0c0c">Agent</text>
  <text x="125" y="92" font-size="11" text-anchor="middle" fill="#505a5f">(OIDC Identity)</text>
  <rect x="255" y="55" width="180" height="50" fill="#ffffff" stroke="#00703c" stroke-width="2" rx="4"/>
  <text x="345" y="75" font-size="14" font-weight="bold" text-anchor="middle" fill="#0b0c0c">Rules-as-code</text>
  <text x="345" y="92" font-size="11" text-anchor="middle" fill="#505a5f">Dynamic Frontend</text>
  <rect x="475" y="55" width="180" height="50" fill="#ffffff" stroke="#1d70b8" stroke-width="2" rx="4"/>
  <text x="565" y="85" font-size="14" font-weight="bold" text-anchor="middle" fill="#0b0c0c">Geospatial API</text>
  <rect x="475" y="125" width="180" height="50" fill="#ffffff" stroke="#1d70b8" stroke-width="2" rx="4"/>
  <text x="565" y="155" font-size="14" font-weight="bold" text-anchor="middle" fill="#0b0c0c">Workflow Engine</text>
  <rect x="475" y="195" width="180" height="50" fill="#ffffff" stroke="#1d70b8" stroke-width="2" rx="4"/>
  <text x="565" y="225" font-size="14" font-weight="bold" text-anchor="middle" fill="#0b0c0c">Payment Gateway</text>
</svg>
