<svg viewBox="0 0 815 280" width="100%" height="100%" xmlns="http://www.w3.org/2000/svg" style="font-family: 'GDS Transport', Arial, sans-serif;">
  <defs>
    <marker id="arrow" viewBox="0 0 10 10" refX="9" refY="5" markerWidth="6" markerHeight="6" orient="auto-start-reverse">
      <path d="M 0 0 L 10 5 L 0 10 z" fill="#0b0c0c" />
    </marker>
    <marker id="arrow-blue" viewBox="0 0 10 10" refX="9" refY="5" markerWidth="6" markerHeight="6" orient="auto-start-reverse">
      <path d="M 0 0 L 10 5 L 0 10 z" fill="#1d70b8" />
    </marker>
  </defs>
  <rect x="33" y="85" width="210" height="95" fill="#f8f8f8" stroke="#b1b4b6" stroke-dasharray="4" rx="4"/>
  <text x="43" y="101" font-size="11" font-weight="bold" fill="#505a5f">CITIZEN INPUT</text>
  <rect x="303" y="85" width="210" height="95" fill="#f8f8f8" stroke="#b1b4b6" stroke-dasharray="4" rx="4"/>
  <text x="313" y="101" font-size="11" font-weight="bold" fill="#505a5f">RULES ENGINE</text>
  <rect x="573" y="15" width="210" height="235" fill="#f8f8f8" stroke="#b1b4b6" stroke-dasharray="4" rx="4"/>
  <text x="583" y="31" font-size="11" font-weight="bold" fill="#505a5f">BACK-OFFICE</text>
  <path d="M 228 140 L 250 140 L 273 140 L 295 140 L 318 140" fill="none" stroke="#0b0c0c" stroke-width="2" marker-end="url(#arrow)"/>
  <path d="M 448 165 L 520 210 L 543 210 L 565 210 L 588 210" fill="none" stroke="#1d70b8" stroke-width="2" marker-end="url(#arrow-blue)"/>
  <text x="543" y="200" font-size="11" font-style="italic" text-anchor="middle" fill="#1d70b8">Live spatial lookup</text>
  <path d="M 498 140 L 520 140 L 543 140 L 565 140 L 588 140" fill="none" stroke="#0b0c0c" stroke-width="2" marker-end="url(#arrow)"/>
  <text x="543" y="130" font-size="11" font-style="italic" text-anchor="middle" fill="#0b0c0c">Structured JSON</text>
  <path d="M 448 115 L 520 70 L 543 70 L 565 70 L 588 70" fill="none" stroke="#1d70b8" stroke-width="2" marker-end="url(#arrow-blue)"/>
  <text x="543" y="60" font-size="11" font-style="italic" text-anchor="middle" fill="#1d70b8">Calculates fee</text>
  <rect x="48" y="115" width="180" height="50" fill="#ffffff" stroke="#0b0c0c" stroke-width="2" rx="4"/>
  <text x="138" y="135" font-size="14" font-weight="bold" text-anchor="middle" fill="#0b0c0c">Agent</text>
  <text x="138" y="152" font-size="11" text-anchor="middle" fill="#505a5f">(OIDC Identity)</text>
  <rect x="318" y="115" width="180" height="50" fill="#ffffff" stroke="#00703c" stroke-width="2" rx="4"/>
  <text x="408" y="135" font-size="14" font-weight="bold" text-anchor="middle" fill="#0b0c0c">Rules-as-code</text>
  <text x="408" y="152" font-size="11" text-anchor="middle" fill="#505a5f">Dynamic Frontend</text>
  <rect x="588" y="185" width="180" height="50" fill="#ffffff" stroke="#1d70b8" stroke-width="2" rx="4"/>
  <text x="678" y="215" font-size="14" font-weight="bold" text-anchor="middle" fill="#0b0c0c">Geospatial API</text>
  <rect x="588" y="115" width="180" height="50" fill="#ffffff" stroke="#1d70b8" stroke-width="2" rx="4"/>
  <text x="678" y="145" font-size="14" font-weight="bold" text-anchor="middle" fill="#0b0c0c">Workflow Engine</text>
  <rect x="588" y="45" width="180" height="50" fill="#ffffff" stroke="#1d70b8" stroke-width="2" rx="4"/>
  <text x="678" y="75" font-size="14" font-weight="bold" text-anchor="middle" fill="#0b0c0c">Payment Gateway</text>
</svg>
