<svg viewBox="0 0 820 250" width="100%" height="100%" xmlns="http://www.w3.org/2000/svg" style="font-family: 'GDS Transport', Arial, sans-serif;">
  <defs>
    <marker id="arrow" viewBox="0 0 10 10" refX="9" refY="5" markerWidth="6" markerHeight="6" orient="auto-start-reverse">
      <path d="M 0 0 L 10 5 L 0 10 z" fill="#0b0c0c" />
    </marker>
    <marker id="arrow-blue" viewBox="0 0 10 10" refX="9" refY="5" markerWidth="6" markerHeight="6" orient="auto-start-reverse">
      <path d="M 0 0 L 10 5 L 0 10 z" fill="#1d70b8" />
    </marker>
  </defs>
  <rect x="20" y="100" width="110" height="50" fill="#ffffff" stroke="#0b0c0c" stroke-width="2" rx="4"/>
  <text x="75" y="120" font-size="14" font-weight="bold" text-anchor="middle" fill="#0b0c0c">Agent</text>
  <text x="75" y="137" font-size="11" text-anchor="middle" fill="#505a5f">(OIDC Identity)</text>
  <rect x="190" y="100" width="170" height="50" fill="#ffffff" stroke="#00703c" stroke-width="2" rx="4"/>
  <text x="275" y="120" font-size="14" font-weight="bold" text-anchor="middle" fill="#0b0c0c">Rules-as-code</text>
  <text x="275" y="137" font-size="11" text-anchor="middle" fill="#505a5f">Dynamic Frontend</text>
  <rect x="480" y="20" width="170" height="45" fill="#ffffff" stroke="#1d70b8" stroke-width="2" rx="4"/>
  <text x="565" y="47" font-size="14" font-weight="bold" text-anchor="middle" fill="#0b0c0c">Geospatial API</text>
  <rect x="480" y="100" width="170" height="45" fill="#ffffff" stroke="#1d70b8" stroke-width="2" rx="4"/>
  <text x="565" y="127" font-size="14" font-weight="bold" text-anchor="middle" fill="#0b0c0c">Workflow Engine</text>
  <rect x="480" y="185" width="170" height="45" fill="#ffffff" stroke="#1d70b8" stroke-width="2" rx="4"/>
  <text x="565" y="212" font-size="14" font-weight="bold" text-anchor="middle" fill="#0b0c0c">Payment Gateway</text>
  <line x1="130" y1="125" x2="185" y2="125" stroke="#0b0c0c" stroke-width="2" marker-end="url(#arrow)"/>
  <path d="M 360 110 L 475 110 L 475 42" fill="none" stroke="#1d70b8" stroke-width="2" marker-end="url(#arrow-blue)"/>
  <text x="417" y="71" font-size="11" text-anchor="middle" fill="#1d70b8">Live spatial intersection</text>
  <line x1="360" y1="125" x2="475" y2="122" stroke="#0b0c0c" stroke-width="2" marker-end="url(#arrow)"/>
  <text x="417" y="117" font-size="11" text-anchor="middle" fill="#0b0c0c">Structured JSON</text>
  <path d="M 360 140 L 475 140 L 475 207" fill="none" stroke="#1d70b8" stroke-width="2" marker-end="url(#arrow-blue)"/>
  <text x="417" y="168" font-size="11" text-anchor="middle" fill="#1d70b8">Calculates fee upfront</text>
</svg>
